<mxfile host="app.diagrams.net" modified="2023-07-17T23:52:02.811Z" agent="Mozilla/5.0 (Windows NT 10.0; Win64; x64) AppleWebKit/537.36 (KHTML, like Gecko) Chrome/114.0.0.0 Safari/537.36 OPR/100.0.0.0" etag="VMvGQRHPHmvDRSv_OGSS" version="21.6.2" type="google">
  <diagram id="z8S4xT8HBOicUd6nkR5e" name="Arquitectura FÃ­sica">
    <mxGraphModel grid="0" page="0" gridSize="10" guides="1" tooltips="1" connect="1" arrows="1" fold="1" pageScale="1" pageWidth="827" pageHeight="1169" math="0" shadow="0">
      <root>
        <mxCell id="0" />
        <mxCell id="1" parent="0" />
        <mxCell id="z_aPiHpWdewL4F4yoZI_-2" value="" style="rounded=0;whiteSpace=wrap;html=1;dashed=1;fillColor=default;" vertex="1" parent="1">
          <mxGeometry x="3011" y="193" width="687" height="511.29" as="geometry" />
        </mxCell>
        <mxCell id="X_8Asj4i2b9GTVywfB0Y-5" value="" style="rounded=0;whiteSpace=wrap;html=1;dashed=1;" vertex="1" parent="1">
          <mxGeometry x="3027" y="274" width="654" height="417" as="geometry" />
        </mxCell>
        <mxCell id="z_aPiHpWdewL4F4yoZI_-4" value="h" style="rounded=0;whiteSpace=wrap;html=1;dashed=1;fillColor=default;" vertex="1" parent="1">
          <mxGeometry x="3043" y="301" width="599" height="308" as="geometry" />
        </mxCell>
        <mxCell id="z_aPiHpWdewL4F4yoZI_-3" value="" style="rounded=0;whiteSpace=wrap;html=1;dashed=1;fillColor=default;" vertex="1" parent="1">
          <mxGeometry x="3787" y="301" width="247.56" height="141" as="geometry" />
        </mxCell>
        <mxCell id="z_aPiHpWdewL4F4yoZI_-5" value="" style="rounded=0;whiteSpace=wrap;html=1;dashed=1;" vertex="1" parent="1">
          <mxGeometry x="2848" y="330" width="120" height="190" as="geometry" />
        </mxCell>
        <mxCell id="X_8Asj4i2b9GTVywfB0Y-15" style="edgeStyle=orthogonalEdgeStyle;rounded=0;orthogonalLoop=1;jettySize=auto;html=1;exitX=0.5;exitY=1;exitDx=0;exitDy=0;exitPerimeter=0;entryX=0;entryY=0.5;entryDx=0;entryDy=0;" edge="1" parent="1" source="z_aPiHpWdewL4F4yoZI_-6" target="X_8Asj4i2b9GTVywfB0Y-11">
          <mxGeometry relative="1" as="geometry" />
        </mxCell>
        <mxCell id="z_aPiHpWdewL4F4yoZI_-6" value="" style="sketch=0;aspect=fixed;pointerEvents=1;shadow=0;dashed=0;html=1;strokeColor=none;labelPosition=center;verticalLabelPosition=bottom;verticalAlign=top;align=center;fillColor=#00188D;shape=mxgraph.mscae.enterprise.android_phone" vertex="1" parent="1">
          <mxGeometry x="2885" y="383.83000000000004" width="40" height="66.67" as="geometry" />
        </mxCell>
        <mxCell id="z_aPiHpWdewL4F4yoZI_-8" value="The Cure App" style="text;html=1;resizable=0;autosize=1;align=center;verticalAlign=middle;points=[];fillColor=none;strokeColor=none;rounded=0;dashed=1;" vertex="1" parent="1">
          <mxGeometry x="2862" y="342.16" width="92" height="26" as="geometry" />
        </mxCell>
        <mxCell id="z_aPiHpWdewL4F4yoZI_-12" value="" style="rounded=0;whiteSpace=wrap;html=1;dashed=1;" vertex="1" parent="1">
          <mxGeometry x="3062" y="339" width="414" height="258" as="geometry" />
        </mxCell>
        <mxCell id="z_aPiHpWdewL4F4yoZI_-13" value="" style="rounded=0;whiteSpace=wrap;html=1;dashed=1;" vertex="1" parent="1">
          <mxGeometry x="3509.27" y="398" width="113.04" height="141" as="geometry" />
        </mxCell>
        <mxCell id="z_aPiHpWdewL4F4yoZI_-14" value="" style="endArrow=classic;html=1;rounded=1;exitX=0.998;exitY=0.087;exitDx=0;exitDy=0;exitPerimeter=0;" edge="1" parent="1" source="z_aPiHpWdewL4F4yoZI_-12" target="z_aPiHpWdewL4F4yoZI_-13">
          <mxGeometry width="50" height="50" relative="1" as="geometry">
            <mxPoint x="3440" y="496" as="sourcePoint" />
            <mxPoint x="3258" y="354" as="targetPoint" />
            <Array as="points">
              <mxPoint x="3570" y="361" />
            </Array>
          </mxGeometry>
        </mxCell>
        <mxCell id="z_aPiHpWdewL4F4yoZI_-15" value="&lt;font style=&quot;font-size: 11px;&quot;&gt;Core de Negocio&lt;/font&gt;" style="text;html=1;resizable=0;autosize=1;align=center;verticalAlign=middle;points=[];fillColor=none;strokeColor=none;rounded=0;dashed=1;" vertex="1" parent="1">
          <mxGeometry x="3354.9999999999995" y="562" width="101" height="26" as="geometry" />
        </mxCell>
        <mxCell id="z_aPiHpWdewL4F4yoZI_-20" value="&lt;h2 style=&quot;margin: 0px 16px 0px 0px; overflow: hidden; text-overflow: ellipsis; line-height: 28px; flex: 0 1 auto; color: rgb(50, 49, 48); font-family: az_ea_font, &amp;quot;Segoe UI&amp;quot;, az_font, system-ui, -apple-system, BlinkMacSystemFont, Roboto, Oxygen, Ubuntu, Cantarell, &amp;quot;Open Sans&amp;quot;, &amp;quot;Helvetica Neue&amp;quot;, sans-serif; text-align: start; outline: none !important;&quot; aria-describedby=&quot;606abda7-3fde-4446-85d9-cb75f1350dfb&quot; id=&quot;606abda7-3fde-4446-85d9-cb75f1350dfc&quot; class=&quot;fxs-blade-title-titleText msportalfx-tooltip-overflow&quot;&gt;&lt;br&gt;&lt;/h2&gt;" style="text;html=1;align=center;verticalAlign=middle;resizable=0;points=[];autosize=1;strokeColor=none;fillColor=none;" vertex="1" parent="1">
          <mxGeometry x="3535" y="461" width="34" height="40" as="geometry" />
        </mxCell>
        <mxCell id="z_aPiHpWdewL4F4yoZI_-21" value="" style="shape=image;verticalLabelPosition=bottom;labelBackgroundColor=default;verticalAlign=top;aspect=fixed;imageAspect=0;image=data:image/png,iVBORw0KGgoAAAANSUhEUgAAASkAAACqCAMAAADGFElyAAAA8FBMVEX///8zMzNAiD8oKCiNjY1fmlduvU0uLi5yqmNhm1l2sWFon2F3tF8rKitspWBmoF14enh1tlx0t1lzrGMUFBQiIiJwu1JyuVaysrLw8e9amVHO3czF18PZ5Ni2zbOqqqo/hz4tgCxQkknm5+VcXFwAAAAbGxsPDg9PT0/s8utERURXV1fP0M94qHKXmZf09fSrx6dmaWabvZfBw8Fxc3GGsIFZnE2sy6dbokqtzqZAiTja29kwgS+80bmRtox8qnabwZHT5c2HwXGj0JRhtTs8PTy+3bRUm0afoZ9Rm0JhrUlaoEut0KXI38EXeRWevJ2NkvzNAAAIlklEQVR4nO2ca1vaSBSACXE2TVPEVuLiQDBGDUblIgjLesHerFZ36///NzszCblMJretSpTz9oOPkIbMy5mTM5dYqQAAAAAAAAAAAAAAAAAAAAAAAAAAAAAAAAAAAACvg52b8bIv4ZVwJjeOL5Z9Ea+CjZqkdM8Gy76MVwAxJUm1bn/Z11F+mClJ0vXmsq+k7HimJMk+Oln2tZQb35SkHICqNAJTkry27IspNWAqL2AqL2AqL2AqL2AqL2AqL2AqL2AqL2AqL2AqL2AqL2AqL2AqL2AqL2AqL2/E1GDjoMCcrfF5VGCNpbnDDs5nqn+4k//MS+CuIUtK93Qv18GDz7PNTWuY89RjydZt2vo8ppq6rNg35Z07Ht/orAH5lph+fPqwufmujtVWjoP39huK5C4ynClZpk6ObPqu0jjdLnT9L8XeccNvgyxnLTF9+fjxw3ti6p2KrJ6Tde6NrndqxT4KQkpsavvUv45ao4SJbOA3xsU+SlsRd75uffzgmlpXiatR6rl3SJ/2CX+KyFT/oBY+Qi/bJoYdO9QYt0Xds8TY//b9z08hU8QVvko89YnXpwXETY1l/mD7sEybGMSNqTXE6erH9z+2QqaYqjrWxOlqL+hL2aYuDu34QUp3oyybGJIbo0vx2P+y9f2PqKk6oqrqeCJIV2vdmvjUAlN8AggOs++erfFFWEu4PgYf+85X4okz5QYVYcqnq6bM9+kUU3exBBD6ykpQMZDKJbUx0dj/xjzxpuoLVXXcDp364kjQl5JMjaXEbMYuo7Gfr8h7NvrdjMaQ5kiLgwe3nqiYKeSr6vmnTupLQlPZBysHy70LHme2RpIai29zWL0Xm2KZiqla3zW8g8fZ30FganCQfbCyvwQ/AcVMWTjLFPZNNVN7E2dqu/H6TMm2zr8UNnUvNlVHXv+rppiqxTJiiinZ5i+jXKbIiG9vzBdXgalbjNNMkarKTDRFbg2xu2yiKVIXnPC1VZlMKV13SMoV7GFT1izVlJkYU6zc8MbJWaa8+20zWq+XyFTNn5kabIS/z8DUFHtBFTeFiaq6lWRKr3kj7mgxIDYV1HD9cBCWx5RyGHp9J9SgSO/DsyRTSEVmVWxKDg2L7kLxKjSlsym8Nqv4t4/86ytRlaCHJxnDlx41ZW2JTZGgsqpiU5HvoHIqmJ8Kf5xNfjd6SMV0PnVt4XXpA+WCpqak/z2ITVkYVZ/KlGNpBFXzTenK0idfipn6OSXgLXFMWVZOU4LZYd4Uoqa0nmcqaVLjRSlk6q+fD1RVNckUVXX55KZyz+s/L/sFTT08TC3zPskUcfU0pjAzxXpfWRYeipu6Nc1qUu8jqp7EVGVEVKmoTaqKg7IsZhU0NZvNSA8zZ0l5yrLOfz+j06rTuc69PPZCFDL19/1sdmtSVcVMSXJozrKZVU8pbgFclhnhBYVN0fsbCSqxKbMqNiXpi+dETyKze+IavSQpnKOgqXsWUkRVQkyZCaa8Ocvt026ecR8ZqJdvna9oTLmiquZtUj2VYIpGylq/wS0/JM+6ZC/NvjQFTZ17pqpmgikz0RRtfeyVlJm8sj39l2gqNLfrm/rn50IU6WYFavREAlOCqeS0pdklsB8aq0eGoDdBAPim/v3lm6qaH8Qx9Wux6DfOMeGr+6MU4YpjqR5W9k3xpXBomdI3VRnunvumqiJTl+fBSnLa4rH3mUd+KXAhXsTSldKkK8+UbMdLYX/pOzBVGVzv+plqGjN1vvsYPsFJ+hKeHH1kO74zwrW57NmWBcyUknBTHis6Z6pSMZDvije1e81XiynLwoLPFC9ml+VvKxBTacuz7L7eiL59dX7pBVXE1LlqxP9/0lYDpSEqLvlpdo/Gxm838wnYV/TUP7OyTZra4Bs1csPKfP/eN4WthG1BF8eCJffEzxzfxI5e/jq7y0bmWP3i8CAW/U6PujKxbyptq1lsS5TcSPlMPl2VZdLlf2NUL82q6fW+6XX69sV+eGtQ5naocLqS38If6uhcXpoWNYXXuT1mVyO+JwbjPcU+zOxLfrqSyzAr/BTMdy/X361PO9FX2yoi/9rcsd6KsGjrmoATmq5I8JWpRv8tHG13+jnalYwe0ogoDfX4O2FT1+Vu7r11O3Z3vySF1NNgRBPUYI41DQ+dIf0x59LR4K5fJEZKccN7LjpY1TDL7s4Eayou2fxuaWipSEP+DmJDC/8GBDjXNEGFb3pXNF1l1A+rx4AuO2HuwSzhiytOUvhEA23QEowMV4pWSkpykxczZHQcJ/35mrfOMP02N6Q3RFqddozRpNJJPO7t41ga4kunCIM50vCgYhjGaFRZ5cKhhdSsQOmoqFUZtFvGfMVNIX+QZxhucLWG8/l81Fkk8DYipkjvqzjDVS4aQqYMy6Lh1WYPhxCw9zCpa4r466x0xRA2xTriFcnwdNM1RppmsbDyTK06MVNYQ48sloxrlW4WA1MevKkW0iaL90iJTp2BKUbclOrXlx3Lou+BKQZvyiBpari46zmsG4IpRixP9VSS0bE2GbajVcLKEzM1mJDxC914jxAaQUwFxEzRsfBEw8QTCS7I6AECUwzHaM9JyrqugCkP3tTjKJhaMcjYuAKmPHhTmmoFYxYMpgJ4U3M1qKdIFUqLdDDF4E3R+apJ23AcozVEGpsaBlOM+AjZUjXEID/n9HUwxYjf+5wJZg9wk/LTfQdMMYRVgtG+6ly1FtN2YIpBn8Xz1qkM8URx25tSWHkmaLGzhYRXfA8j3f3ipiuArVPNnYqjabFeRne/wFYOH7azBdHZYMS9MyT3P+HfOltZDI0Oh1UcXU5vqaItZ6tOazSZRNeo4rtfgBDOQhZsdEnFeURe9u7A5qlUFhvxYENeNiyWNJqgVnlXSy5IfqKTwqm7XwAXY9KbQGUAAAAAAAAAAAAAAAAAAAAAAAAAAAAAAAAAAABQHv4DQsQW/do1c4YAAAAASUVORK5CYII=;" vertex="1" parent="1">
          <mxGeometry x="3380.9999999999995" y="411.07" width="69.88" height="40" as="geometry" />
        </mxCell>
        <mxCell id="z_aPiHpWdewL4F4yoZI_-30" value="&lt;b&gt;&lt;font style=&quot;font-size: 16px;&quot;&gt;Canal&lt;/font&gt;&lt;/b&gt;" style="text;html=1;align=center;verticalAlign=middle;resizable=0;points=[];autosize=1;strokeColor=none;fillColor=none;" vertex="1" parent="1">
          <mxGeometry x="2879.18" y="168" width="62" height="31" as="geometry" />
        </mxCell>
        <mxCell id="z_aPiHpWdewL4F4yoZI_-31" value="&lt;b&gt;&lt;font style=&quot;font-size: 16px;&quot;&gt;Azure Cloud - Infraestructure&lt;/font&gt;&lt;/b&gt;" style="text;html=1;align=center;verticalAlign=middle;resizable=0;points=[];autosize=1;strokeColor=none;fillColor=none;" vertex="1" parent="1">
          <mxGeometry x="3270.27" y="137" width="239" height="31" as="geometry" />
        </mxCell>
        <mxCell id="z_aPiHpWdewL4F4yoZI_-32" value="Cloud Azure-Tenant:&amp;nbsp;&amp;nbsp;&lt;span style=&quot;color: rgb(50, 49, 48); font-family: az_ea_font, &amp;quot;Segoe UI&amp;quot;, az_font, system-ui, -apple-system, BlinkMacSystemFont, Roboto, Oxygen, Ubuntu, Cantarell, &amp;quot;Open Sans&amp;quot;, &amp;quot;Helvetica Neue&amp;quot;, sans-serif; text-align: start; background-color: initial;&quot;&gt;sodastereo.fisi.unmsm.edu.pe&lt;/span&gt;" style="text;html=1;align=center;verticalAlign=middle;resizable=0;points=[];autosize=1;strokeColor=none;fillColor=none;" vertex="1" parent="1">
          <mxGeometry x="3382.2799999999997" y="198.99999999999997" width="290" height="27" as="geometry" />
        </mxCell>
        <mxCell id="z_aPiHpWdewL4F4yoZI_-33" value="" style="shape=image;verticalLabelPosition=bottom;labelBackgroundColor=default;verticalAlign=top;aspect=fixed;imageAspect=0;image=data:image/png,iVBORw0KGgoAAAANSUhEUgAAA8kAAAINCAYAAAANwj2PAAAtDklEQVR42u3d7XHbyJqAUYagEBiCQ3AIDIEhKASHwBAYAn/bUlkhMARmYH74/4wakGTZliw20AAa3eepOlW7e+/O2KQE4iUajcVCkiRJkiRJkiT90bfL56t8/7H0YkmSJEmS8u37j5uXIfb+vF58O31p3F02j//7w4u78+HRf4P5/d+1e/lzNJ7+fF9/fvKGSZIkSZL6DMHL3wbgMICOMfQO7WWgfhzmXw/SkiRJkiQ1V1nvzquXQfjuvJ/1ENzP8WWAvj/dPi31vvFDIkmSJEml9bI8uhmGt5UPw92G5/DahSvrlm9LkiRJ0sxqlkqfbp8G4oNBd6Cl2+2XDiubi0mSJElSLr2+StzeN2yAncah+VIifDnharMkSZIkjdivpdOWTee8TLvd8GztSrMkSZIkpSwMWe3y6Z3hc85Xmi+bp+XZNgSTJEmSpKjCMNUOVe4pLtOu+eLDVWZJkiRJeqNwdTEszW032zoaIquyb5bPu5dZkiRJksG4GYwto+b3ZdkGZkmSJEnV1CyldsWYKwZmS7IlSZIkFVm4MtjeY2wwptuS7HanbJt+SZIkSZppzXLqZldqj2oipW3zGDBJkiRJmkVhgGmXUxvoGGM5tqvLkiRJkjLr1yZcHtmEq8uSJEmSqh2OlzbhIrt7lyVJkiRp1Nol1R7dRL5LscOzly3FliRJkjRo4Srd/fnBEMZMHJuVDh4jJUmSJCn5cOx+Y+Z+37JhWZIkSZLhGAzLkiRJkgzHYFiWJEmSZDgGw7IkSZKk7t2dV4ZjDMt2w5YkSZLqLjzKyW7V8Gs3bI+OkiRJkiosLC8NV84MRfD2sBxuPZAkSZJU/HB801wpa58faxiCf9s3qy0kSZIkFZj7jsHmXpIkSVL1hZN79x1DmvuVJUmSJM24dmm1AQcswZYkSZJqHo4fT+ItrYYBXTZ2wZYkSZJyL5y0h5N3QwyM4dDc6y9JkiQpw2zMBVPZuaosSZIk5VJz9dgzj2Hyjb1cVZYkSZImzr3HkOPjolxVliRJkkbPvceQ773KdsCWJEmSRurrz0/NY2gMIpA3z1WWJEmSBu7+vH6699EAAnNwf35YfP+xdPCSJEmSUmZzLrCplyRJkqSF5dVQjMvGAU2SJEnqk+XVUOLya7tfS5IkSdHZvRrKXX4dVohIkiRJuqJwlSlcbTJIQOlXldcOeJIkSdK/au8/PhggoBpbBz5JkiTprcLut+4/BvcpS5IkSdV3f7o1LEDV9u5TliRJkkKefwzY0EuSJEnVF5ZX3p13BgPgt0HZhl6SJEmqdEDeGwgAO19LkiSp9gF5aUAGPnbZOGBKkiSp7NpHPNnBGvCIKEmSJBmQDciAQVmSJEkyIAMGZUmSJMmADCQclMOmf5IkSZIBGaCxNyhLkiTJgAzwelCWJEmSDMgA7lGWJEmSARnAoCxJkiQDMoBBWZIkSQZkAIOyJEmSZlvYbTZspuNkHZjCt9MXB2JJkiQZkAGe3Z/XDsiSJEmavvvzgxN0IBMrB2VJkiRNV7gX0Ek5kI9jsz+CJEmSNHrhHkAn5ECOg/L3H0sHaUmSJI1XuPfPiTiQr32zX4IkSZI0eB71BMzDzgFbkiRJw9buZG1ABjwaSpIkSfKoJ8CO15IkSVI7INvJGrDjtSRJkmSjLsBGXpIkSVLIRl2AjbwkSZKkxfNGXe5DBspwf7p1YJckSVL33IcMlMb9yZIkSeqU+5AB9ydLkiRJi7DMeuk+ZKBgWwd6SZIkXd/9+cFJNOD5yZIkSdK30xcnz0AVz0+27FqSJEn/rH3ck5NnwGOhJEmSJI97Aup7LNR57eAvSZKkv7PMGrDsWpIkSVpYZg1Ydi1JkiS9ZDdrALtdS5IkKQzIp1snxwCWXUuSJCmcEIYTQyfHAI8uGx8MkiRJNXd33jopBngl7NEgSZKkCvt2+eyEGOCvR0I9+ICQJEmqMc9EBvDsZEmSJC0WzQmgE2EAm3hJkiRVn826AD727fTFB4YkSVINhRM/J8AA11xNXvrQkCRJKrlwwufEF+BaWx8ckiRJJeeRTwBxXE2WJEkqNFeRAbrY+QCRJEkqMVeRATpu4nX57ENEkiSppFxFBujz3OQHHySSJEkl5SoygKvJkiRJWriKDOBqsiRJkl5yFRmgvp2uw581XP1unL68CJ8JYeC/1t1l8/L/e3+6fflnfv9x4wNWkiTNL1eRAcp9bvLLIPxq+L07H0Z+TQ4vw/TzEG2AliRJ2eYqMkAZV5PD4Hl3XrVXdJth+Jj5a3VoHp/VXIV2P7ckScqh9oTq6KQWYIZXk8Mx/P68fvqy81DIa7dvrjiHYV+SJGn02uV3TmgB0joOtpz4689PT8fufSWv5a5Zoj2ne70lSdKMK+fKA0BmO10/DnYpB+P26mrtx+y9gVmSJA1Xu0TPiSzAUPfb9qnZVNFgfMXAbAMwSZKUbEh+cJIFMKi4+2p/3WO899pFLsl2D7MkSeqVxz4BjDO8XX1Mbq4a20ix96OmXF2WJEldak/GnFABTPk4qPDYo/YqqNcp9cZpYcdv9y5LkqTrh2RXKwBGEXaifms4dsvLeI/jMixLkqR/ZsMugGk28DIcG5YlSVKGWdoHMP7joAzHhmVJkpRhNuwCgP+avTls8CVJkpqrGU6OAKDd4Ct8LkqSVGRff35q7vVqdwpdNRul9PL0zwpKWpbl2ZsA8Kd9cx4hSdJsCkNqs9nJ6bYZYMM9te29XYdJPkjbf/e2+bOETbDaQfpmFq+jEyEAsARbkjSzYfh5EJ7fVc9jO0A/fsg2A/3j3yWnLLUGgI93I8/t81uSVM1AfPPHQFzyc3v3zZXnMKROuZzLUmsAcFVZkpTRUBzuFQ4fOoa19opz+IJgrKHZUmsAiL+q7F5lSVLSms20mivFrmB+NDS391mvB9skzFJrAOgmnMtIktS55mrxeVv48ukRlmdfNkm/vW6XtHttAaCLsALM8mtJ0vVXKc/rCu4rnm6pV9+BuV3q7rUEAMuvJUmuGJe24+bpS/SS7Pa98voBQJqrymsngpKk5yuSy6eNtw4+JDNY9tXew/zx0q/2PfOaAUDK3a8lSRUXhrHm+b8+FDPd9Gv7z6vLvtQAgCHs3KcsSXVdNb552pnagDW3q8t/Xf332gDAYJttGpQlqfjhePl0r7EPvjnfuxwe+RQ+tNtN1bwmADDkoGxDL0kqsG+Xz5ZUF7kU2zOqAWCMz1yDsiQZjgEAMChLkuEYAACDsiQVUThwG44BAAzKklR1NuQCADAoS5Lh+OVRTkcfWAAABmVJqre782rhOccAANMNyp6jLElZXD1euu8YACALe4OyJE1Zu7TaBxIAQC7CxQtJ0tjD8eWzpdUAANnaOmGVpDEKy3fuLhsfPAAAuV9RPt06eZWkIQs7Jrp6DAAwH2H1nyRpgNx7DAAw1x2vl05mJSlV4aAadkn0AQMAMN8dryVJCWqfe3z0wQIAMHeXjZNbSeo1INucCwCgMCsnuZIUv7z6xvJqAIBi70++ccIrSdfW7l5teTUAQKnuzw9OeiXpmu7Pax8cAAA1DMqenyxJ/+7uvPWBAQBQ1bLrpZNgSfqz9v7jnQ8KAADLriXJgGyDLgAAu11LUvXZoAsAALtdS5IBGQCA1y4bJ8iS6u3b5bMBGaCgK0DhnsKwt8S305fmKQXhON/eTuP1Aa4XLqJIUnV5xBPAnAfhbTMIh/sHwyD8UV43wCZekmRABpipQzsIXzbNIByG4GsGYUMykFLf444kGZABiLD/axAecnmj1xvo8oWdJBmQAUg+CDf3B59un+4PXk5y/PdeAN2WXa+dQEsyIAMQd9/e3xtlLbP7DPBeAa4mS9Kr2l2sHegBUu4YPae8j4CryZL0lOcgAwyzY7QhGXA1WZIMyAB2jDYkA64mS9L8CksBDciAHaM/+UAwJAMJjq+SVMCAvHdAB+wYLUMykITnJkuade29dQ7mgB2jZUgGUtk5mEqa64nQ1kEcsGO0DMlAcr6wlDS/K8inWwdwILMrwodX/7etA7UhGZizy8YBVdJ88ixkIJdHJ72+Itz+35/uZ3v8n2VIBuZ93JekWRSWvtjJGhj00UkdnyFsSDYkA6VZOahKyn1AtpM1kGgQHuDRSYZkQzJgAy9JGvnEx0ZdQLdHJ43xDGFDsiEZKHEDLxstSsq0sCOsAzXweqOs3J4hbEg2JAMlft6sHVgl5Ve4AuQ+ZKh1x+j5PDrJkGxIBspcnSRJGZ7wuA8Zat0xek4Zkg3JQKlLrpcOrpIyOtm5bBycoaCNsmJ3jDYky5AMWHItSc8nnJ6HDNXvGG1IliEZsMu1JC2eH/d0cFCGzO7LymmjLEOyDMnAWCRp+pMcy6whO6UukzYkG5IBPrZygJU04YmmZdZgSDYky5AM5OSycYCVNE2WWYMh2ZAsQzKQ4/4bkjTNyY1l1mBINiTLkAx4FJQkLZrdcB2AwZBsSJYhGXBfsiQ1JzZ7B18wJBuSZUgG3JcsSeGRMg6+YEg2JMuQDOT8KERJGqV2s66jAy8Ykg3JMiQDWZOkcU5obNYFhmRDsgzJgM9CSVo0uwQ64IITA0OyDMnAHIRbBCVp0O7PDw64YEg2JMuQDNi8S5LCCbeDLRiSDckyJAOzuZJ8fnCgleQqMmBINiQbkgFaRwdaSUMNyGsHWTAkG5JlSAZmJzyZRZIGOIk5OMiCIdmQLEMy4PNQklxFBicFhmQZkoH5WjnYSnIVGTAkG5INyQCO8ZJcRQYMyYZkQzKAx0BJGm5ItqM1GJINyTIkAx4DJUmeiwyGZEOyDMmAIVmSXEUGQ7IhWYZkoBwHB1tJ/fv+Y+mACoZkQ7IMyUARJCnBScvWARUMyYZkGZIBQ7Ikff9x83gwOTqggiHZkCxDMmBIlqT7062DKRiSDckyJAPFCBeBJKnHCcvBwRQMyYZkGZIBn4mS5LFP4ITAkCxDMuAzUZJeTlZs2AVOCAzJMiQDPhMl6WnDLgdRcEJgSJYhGfCZKEmL+/PaQRScEBiSZUgGfCZKUjskPziIghMCQ7IMyYDPREn6/mPpAApOCAzJMiQDPhMlqbmK7NnI4ITAkCxDMuAzUZKeT1L2DqDghMCQLEMyUKSwQa0kXZ2l1mBINiQbkg3JQMkkKSpLrcGQbEg2JBuSgbLtmie5uKIs6boh2a7WYEg2JHtBDMlANfbNRaKwmlKS/ip8m+ZACYZkQ7Ih2ZAMGJglqbmKvHZwBEOyIdmQbEgGCAOzJdmS7s5bB0QwJBuSDcmGZIDfhHPklYO0VOfJydFBEAzJhmRDsiEZ4E2H5jPCcmypkr7+/OTAB4ZkQ7Ih2ZAMcOXVZZ+tUuF59BMYkg3JhmRDMkC3e5clFXlisnOQA0OyIdmQbEgG6LUU20ZfUkEnJu5HBkOyIdmQbEgG6OdoWJZKyP3IYEg2JBuSDckAhmVJT7kfGQzJhmRDsiEZwLAs6eWkxPORwZBsSDYkG5IBDMuSnk5KDg5cYEg2JBuSDckAIwzLYRWnpIwL32Y5WIEh2ZBsSDYkA4y7G/bdeeXAL2V5Yvh44uwgBYZkQ7Ih2ZAMML7780Ozia6kjLJpFxiSZUg2JANM7LJxv7KUzwmJTbvAkCxDsiEZIIf7lS3BlnK4knx+cEACQ7Ih2ZBsSAbIaAn29x9LHwqSExLAkGxI9pnkdxXg9SOjJI1c+IbKAQgMyTIkG5IBcrW3sZc06kmhna3BkCxDsiEZIP/PcZ9N0vgnhYAh2fHQiYghGcC9ypKTQgccMCTLkGxIBpjNvcr357UPDGmo7GwNdd3TFH7nedvd+fDqtTp4TSZ7H/yuAlxn57nKkiEZAAB4/aWuTb0ky9oAAIDX9yqfbg02kiEZ6PIBGu5L5m135+2r12vrNZnsffC7CtDN1vJrqW9haYaDCdi4S2027vLlLUAJ+49Yfi31OSH0jT0YkmVINiQDFLf79d155QNFMiQDhmRDsiEZAPcpSz0KvzgOIGBIliHZkAxQ7n3KkjqeEAKGZMdEQ7IhGaDM+5Rt6CUZkgFDsiHZkAzAb4Py0oeMZEgGDMmGZEMyAM8betn5WvrwRGTnYAGGZBmSDckAFQ3Kzgekf3R/fnCgAEOyDMmGZIDadr4+r33gSIZkwJBsSDYkA2BQlgzJgCHZkGxIBsCgLBmSAUOyIdmQDIBBWTIkA4ZkQ7IhGQCDsmRIBgzJhmRDMgAGZcmQDBiSDcmGZAAMypIhGTAkG5INyQAYlCVDMmBINiQbkgEwKKuOvv+4aU5mg/ADGk7WmpO3y6YZbPu4O29//fPOBwcBMCTLkGxIBsCgrOn7+vNTOwi/Gn4NrYAh2ZBsSPa7CpCHYzOzSMOceIUrwqfb5iru3XnvFw4wJBuSZUgGMCirlqXSy2ZpgoEYMCQbkmVIBpi/Q3M7qNRxKLZcGjAkG5JlSAYozd6grI+XT4f7iF0pBgzJhmQZkgHqsPMhpT8/tFdPV4uPfkEAQ7IhWYZkgPpcNj6ofFAbjAFDsiFZhmQAnnk0VIWF3dsMxoAh2ZAsQzIAb7PjdQWFm9DbRzS5xxgwJBuSDcmGZAD+7Wgjr/KvGvtBBwzJhmRDsiEZgOuXXT/40CqpsI4+vKl+uAFDsgzJhmQAbORV9XDsWcaAIVmGZEMyAKmsfHjNrbBWvj3xsREXYEiWIdmQDED6+5OXPsAMxwCGZEOyDMkAtPY+wOZxomM4BjAkG5INyQCMcp7hszPP3HMMYEg2JBuSAXCu4cTm8c3wjGMAH1yGZEMyAFM6eH7y1IUbxO/OOz+MAIZkQ7IhGYAsbH2YTXsy475jAEOyIdmQDEBePBZqgqXV7jsGMCQbkg3JAOTpaNn1OEurbxZ3l40fOABDsiHZkAxA9nY+1Ib9wFy5egxgSDYkG5IBcO7h6rGrxwA+qAzJhmQA5shu1+49BjAkG5JlSAbgl8vGh1vqExUADMmGZEMyAPP19ecnH3Ddl1cvF/fnBz9IAIZkQ7IhGYBChBlPnZdXe+4xgCHZkGxIBqC8QXntQ87yagBDsiFZhmQAWp6dfOXy6ptFeH6WHxgAQ7IhWYZkgMLPRXy+/rtw8/bdee+HBcCQbEiWIRmgEmEfKrn/GMCQbEiWIRmAxtaH3Z+FG7b9YAAYkg3JMiQDOCfxwXfZ+KEA8IFkSJYhGaBiHgn18qG39QMBYEg2JMuQDEDd5yVhB+vwTYEfBAAfRoZkGZIBqPpqcvuIJztYAxiSDckyJANQ+bmJARnAB5EhWYZkAN53MCADYEg2JMuQDEBV5ycGZAAfQoZkGZIBcG+yARnAkGxIliEZAOcoBmQAH0CGZBmSAXA12YAMMEv75sMoDIL3p9tmeP7+Y2lINiQbkgGYzNefn0r7QDMgA5Q2QDceB+jiPrQMyYZkADK0LenDbOsNBajCoRmg7y6bIgdoQ7IhGYBpFbGyzYAMQOvYDtCPnwvtsLma3T3QhmRDMgAT758y98/fcB+bNxKA2AH6/rx+ug/6xpAsQzIAv50zzHdAfjzB8QYCkEI7QO8mH6ANyYZkAHI4L1jP78Mr3H8WJnxvIABjbiQ29E7chmRDMgB5fPbPqvZRTwZkAPIaoFNsJGZINiQDkIdZbQzqUU8AzEP8TtyGZEMyALnY2skaAKbaSOx5J25DsiEZABt42agLAN5Zyp3zTtyGZABs4GWjLgDI6j7ooTcSMyQDULddzht1uQ8ZAGIG6BQbiRmSAahdll9Euw8ZAFKI30jMkAxA9UuuT7e5fUitvDEAMMLmJG9tJGZIBoCMnpnsecgAkN8AXcNGYt5zALJcct1+IHtDACDrZWjN5/WuqAHa+wpAdkuuwx/CmwEA81+iNseduL1vAGS15Dp8eFpmDQD1DNC5bSTmvQEgqyXXllkDQO2m3Ynb6w9ANkuuw71M3gAA4H3D78TtNQbgrT047GYNAMx6gO66kZjXEYC3l1zfjH3/z9YLDwAMehXgmp24vVYAvG013oAcPqS84ADAlAP080ZiXg8A3rYd8yry3gsOAABAxg426wIAAIBngz9twWZdAAAAzOb2nKEfBeW+HwAAAOZjN+RV5KUXGAAAgBk5euQTAAAADHpfsqvIAAAAuC/ZVWQAAABmbesqMgAAALQOriIDAADAs/A4Y1eRAQAA4NG3y2dXkQEAAKAZkk9fXEUGAACA1q7/kBwmbS8kAAAA83foexX55vEfcvRCAgAAUIRe3Z/XXkQAAADKuS+5z+Zd4VK0FxEAAIBS3J9uO96L/DhdewEBAAAo6kpy1x2uPfYJAACA4q4knx+6btjlxQMAAKA0HXa4Dmu0vXAAAACUqMNS670XDgAAgCJ9/fnp+gE5/Je9aAAAAJQq6jFQd5eNFw0AAIBiRT0GyrORAQAAKPpK8rWPgbLUGgAAgPJtLbUGAACAZrn1tc9KttQaILVjcxCO4TUDAMhgSLbUGmDC+108hg8AYFQfFk7kvFAAaX3/sYweku/Pa68dAMDUQ7IrFwAT3evyR99/3Hj9AACmHJLDlQ4vEkDqIXm96FrYcdFrCAAw4G1xl8+W9gGM59hcEe5aOGh7DQEAJhqSXbEASG276JsnDgAATDYkH71IAAmFJwb0zYaKAAATDMke/QSQ2mGRIvtFAAAM5/50+879yI//gRcIYIQDbqcl1zuvKQDAEFeST1+cgAGMoc+GXTZWBACYfEi2MQxAOrtF6uwbAQAw0pDsfjeA1Fbph+TLxusKADDGkBxO5rw4AKkcF0Nkg0UAgJGGZI8XAUjoslkM1d157/UFABh6SL4/P3hxABIJt7DEPN4pZoMvG3gBAIyy3NpmMABp7COvDG+jHhUVBmrHbACAAYdkm3YBpBOu9MYNvN0Ga681AMBAQ/K3y2cvDECypdbdlk6HTbmuzXEbAGDIIdmmXQCJbKOuCP+2H0TkZl+ebQ8AMNCQbNkeQKID7OVz1IZdv///xz02KtzH7DUHABhgSLazNUAKhwRD7qrHkA0AQKIryXZJBUh+cO20XHob+c/Yee0BANIPyV4UgL5ino0cNul6/59zEzEkr7z2AAA9/fZ0EjukAqSwS/YIp5hHSFkNBACQ4Ery631lDMkAib997D3YRj4z+bLxHgAApBqS7Y4K0NcxckD+eIl0zNJtG3gBAKS8kuwZyQA9pd9sK34TsL33AQCgo7BfjGckAwxxUP3wqu/Nlf/cyMdJndfeC0hy68TDX97eiX78P1c4ZwtfoIXf93DF409hlUr4z9v/Th5/boC58IxkgGT2gw2zvy37uWr4toEXxNs1v5fX3OIQvhBrb1M7jnJsaQbeiOPA+8eG1dNFEccIAEMywNBXdx5PmIdbFr1NtmP25Pf2FNi1n58x5XgLVPh7DvG6XPUzFHHbQexGpOGfHXPv/zjnTsdmI76uf65r90Rw7gfw9/H3j4OlpTgAXcU80zh+g61j1D8/t6cVGJINyTkOyeHP13cITT9kHp+G9pvRfn7D62VYBnjns86LAtDVdvABKP7RUgdDsiHZkJzgnzfm33HM4fjt180FE8CQbEgGSGI1wgC7izt5z+ixfiUPye2qgKMheUZDcuwXTsP/HfdRm/4N+/N8s7hm132AYl02hmSA/uJ2nw4nw92XdC8jT3YNyUMXc2+5IXn6ITnlgJzk7/jnyVguqyMy+pINYNRzlj8/b7woAMOf5PbZVCt+c7CdIXnI5amRg6whedohOfWA3PfvOMSfJ+3fzePkgBqXW6/z3eQFYD4bdi0jB9c+j145RP67VobkQe/f/M+QPJsheTvQINnl73jMZnm1QRngH+cshmSA4YeGFENr7Ml1DhvxlDYkd30WtSF5qiH5MNiGWPF/x/kMyJZeA9Vf/DAkAwy/XDLJ8ufY5d2P/31Dcur7kLu9j4bkaYbkIX/+Yv+OKQbk8PcJr0f77z6+O4w3/3nz+79K8DO/dcwHqtB72RhA3Y6Rz0a+Sfbvjd99eeLh6nTbnthnKPYKY5+raobkKYbkXcTv5+pl+PxTGBLDf/bnwB3zd+xzD3L487U/E4fOx40+j5hqX5+94z5QuL0hGaCf7WjD1d9Wkw0rRX8YXrUz+dGQPKMh+aM9A9ovkbbRA2e4QhsGx6v/jj12sW5/Fo7JvmTr+oxo54pAdbfROfABDLuEOO1VmMhnJtt8p/e9oSmupBmSxx6SdwPfinC8cnjddxpK2y9l9oO9l12uKudw+wbAYOd2f37WGJIBYhwilyqmX/Icv9T76H3rcz95guHAkDzukPzeF1njLh0+Ru+A/2uTv6F/Z/fRg7JjCVDVuYEhGSDuHtupr77EPzPZxjtdr8SnepSWIXnMIfmQxb21sb+n46/8iB+Uc/zZBBhklaAhGSDmKm7ss5EPg5zcxi/d9N7FPg6oXQVwNCTPbUh+4x7g8TefOmQ+IHf70sjVZKBUNmMAGOmEcsjjax7D+rzEPoIn5aBnSB5nSB70EWwD7lvQd2O4flaRr6WVKUBp9oZkgCJOJiN3zE27w3YBG3KMPKgakqcbklMtmR/qtWqvzk75Jdahw0Dv8wCo4CKIFwbg40144k/Oj9mc2KZ7VvMcN+N4mHwIMCRPMyRPsTw4evf7DHaNjt7MzsoUoIYv0r04AImv3I5yf+Eq6yWnuXy5Eb8b+MGQXMiQPP5rGbdfQD6r+Q6zG+wBBv9y04sDkPZ+1nEG0m3Wy07nuUR+mPfNkDz+kDzFVeTYK7IpX6cxj3Fu1QNK8u6X6V4cgHRXh8Zb2nyMfoRLVcskM7r6b0gef0ge/3WM+33MbtCM/H3xuQAUf47n3hKAhFeHRtwkK/bPVs9zTmO/2Ej3uCdDch5D8vjnNtsMV5sM9zuT01VwgEGO3Q50AB2W4bx78rvPdnhph8Hy70OOXx4/7HtmSB53SJ7m1oLV7H8PfeEGuBBiSAZIfnVoipPf2Gcml37Mj96pd4RNiAzJYw/J26wHzFwfyRazM3edexwA5V0IWXowPMCQJ41T7foaO0SMs/P2VHZZ7i5sSB57SD5k/fqMudpkqC+YPC8ZmL+DJTMAyQ+e2ezx0OXPeSzy/Yp/3NPRkFzYkDzFao6YP2POzyyPfa19RgBFrxY0JAP0P2Gccrfa+Htwy1tBFPsajLns3JBc9kqJYpYpR+9wffRZAZR7e5bn3QH0v9d32sEz7t7p0pZKRg9SI98Takge8cuqCV6/3G/JmMP7DJDdeZ4hGaDfyeKYS3ffduyw5Hpf5Xs1xRcEhuQxrySPPbgdihksDcmAW+rcVwKQZAObXDbDyvl5zkN+ORB/H/LekFzwkDz2+xv/2qybv1OO4o97hmRgpq69vcR9JQB9rsruMvhz7zpc/Z77e7WKfJ+mWRJvSB5zSM77Pt6SsqcNUPz5g28DAbrd3zvFbrrv319zM4uhcZpNhqbbMMmQXO6Q3OURVYZkgGlVvdMpQBfRuyRntGw5/FnmMjj2s+/wRcbRkFz4kDzFF1axS5QNyQAzWnnnQAcQvwnP8261YSjIQZeln9M827nfcvj4R15Nu0mZIXmcIXmKjUhjHv9kSAaY2b4zdrgGiL8S60Q3/w3Kcvj7GZINyY4dADO8NS2ne+oA5nJPbwnN6/gftzlZLl8AG5INyYZkgPndrmWHa4DIAayk5rF546HD454OhmRDsiHZkAzQfcWgHa6Buq0qHpLX2b8/8fch77L5sxuSDcmGZIAcVgwuHewAhtywq7RyXk0U+5idnHYcNyQbkg3JAPP7LHt1grTyAgJ16rArdHFD8uNrUMKHWrjinNvAb0g2JP8613K8BZjms2zd7QTJ5l2A5Tf11g6Xub03x+j3ZurHPRmSDcmGZIAcz/V6bM46v+dlAvS1XyjXATPuPvFcr4YbkssdkmM3gXGeBTCFXd8TpJ0XEbD8xgZes1sCn/MtQ4bkgq8kx94vb5NUgOy/dM9+sxOA4Zfz3piOX267ucnm6n78456OhmRDcvZf5hiSAcY/1yv0njSAoWwLP0bGLy8Kr8nUH2axj3vKffAwJBe83DrytbEjNEDeX2bO8jEgAJNuupPpPa8pN6qY5Gpcj3s85zB0zP3vM+WS4uyvJEfuaWDFHsDY50HLVEOy+5KBGhyq2Nwwduic9u+5K/LK/mzvCzckp/8SZOIvoQDq2nfmYZGsHD+gASa/Yjnbk9v43bunuZp56HAf8qG4ITnHn7PYFRe1Dcmxtwc4/gKMNSQn3JzV85IBy29yvFd3vJP4KT4H4p83O5/3I+bvluNncOzvSm1DcuxJmBV7AHmuGJzhszIBplvWO//9GrYd/r7jncjHL+ed14qn+C8A5n2SUduQHPv75b5kgPzOLYrdnAZguCs/q5n/nY8dBp31SO/FQ4er3Meif97y2q17a0hO/EWCFXsAw5/3DPKIT4+CAko+cNa4oWGX+3KGH0aPHZa9z2+lU+y32Xl9Ub0yJA9y+4Yl1wA5fcFb9C6uAB+KfF5eu0FUpUvMBx/WVpWscor7sM5n865u93PVOCTXsxEgQHn7zlhyDVQvdhOrknb8j/3QGHRVUeSXFfMeKvYZXsUf7n6uGofkLu9xXsvqAVxF9i0nUKm6T2S7PTN5P8j7EP+4p+OsX/v4133q3bu7389V55Ac/yWU8yyAAb7gjdws05JroHqxQ2J5G+x02al4nXz4in+u7K66D+2pf/a6fKFS+5AcuzrCqj2A1PuvPCxGycEbKOselbgrYyU+qiX+mclpr+LGDl+lvAddli5P9eVA35OMaofkDlff298vj90EmM1VZLtcA7Xfo1LmyWuX1yHV0t9dxZ9B8Uv9p7mafOy94Um9Q3K3L0Nyf6xZ+KLK/dOAq8iWXANFWvmS8GkImmaPikOH+5DL+pKiy/A59pX0FN/C1zwkd72Xuz3eHLP7Yud55YkhGXAVuYLlhkBt4u/FLfl2k27PTD6M+uE1/cZV+dznO9Zr0eXnwpCc5mryr0F5n8Wg/+ffwZAMuIpc7DNCgWq/Xex0P2jJq2h2o35hGvv6h6v+vqwZc1A+Jv0GvvYhueuqgV/nXFNuVLd9889uSAZcRS50Z1GgXlk9H3imr0nX+2Njv93N/f7MKT/Ih1jdEN6ff/0sPA9thuRxr2q0XxSN9UXd8d3h2JAMlPjFv2cmA5bgdDhZLXGpb4qlv/FfmMZvAlX6yXjf4Sl8Hqd5jQ5XLa8Ovwuxf2ZDcr9l138/gm0/2Ill+Odfcw+1IRkoab8PG3gBhuRO998eK3htDh2vbsX8O1aLUus3kK0S/fu3kT+rx6cvOlZRf0dD8n+TvtfPq1vCa9FvYD48femxjn8cniEZyNJ2+hMCG3gB8xO/02y598OmWfp79VB22SxKrt9Adui0A/K/bw9YNUPUW8JQFPtet8usD4bkBMeg2GeTX/93ff89f9b8dzLbsRxgqnO8ATfwOnpDgKK/YaxhqXWv1+eq+2L3eXxwZX0b0jbrv9/rpfWG5DwH5VEvlBiSgdy+6E9wS0u6D82CH4kClCf2xLS+3fzjv4X9eAOv+Q8EYw1kqR65lH5A3va6j9qQXN7vhSEZmPstYwNfTV56U4BiD6DtJjnu2f54iNon3RCs1iE5x0H5rVurDMnpBuXJHlPS+9zPvjTAvG8XG/0bZoAsh79Rdm8uYUh+SPhlwm5RSykHslwG5fc+3w3JBS8RvOpLE7faATnZ5fyNojcIyFv6ZcQlv1bLJHtUzPEqWQ5D8tSD0/OzkFN9kWJIvu7LqckfW/Lha+nqMZDjbWL5HjurvNoClP0tY807+HcZ0N666mhInt/gdM0wZEge0GWT1SZ3YTds9x8DVuJkdHIAkM6qw8nhvuLX65Dkc8CQnMp28GG5XTmxu3p4NyQPe2WkHZanuToS/r3tl4SuHAM528/kPhXfNAIZf9MYq/rX7fEkvf9rtu302s/ROPtzbDt94fPRlcL41WCHyNcm3bAVzjXyek+GXwUT7lEf+upy2Gm7fc32jn2AzbrcmwwAM7zS+DgAhqt9sScJYRhqN1rb2oBphldN2kdvrjo/PioM2+FnJvwMhKHYBQ5grl/kzyo7XQPANINzGHje4wphne/7r/ff0mmgnFvCctq7wdVkAAAALLOOvprcLAXyBgIAAFDpMutrnpcJAAAAXfZlmH01P18UAACAdLpuWJjhJl42iQAAAKC7cAG2mMJN1d5UAAAAutktiiv8pbyxAAAAxDnO73FP1z8SyiZeAAAAXG+2j3uyiRcAAADuQ44dlM8P3mwAAADquw/5/WXX3nAAAADesy/zPuR3d7s+ffGmAwAA8IZjOc9DtuwaAACAflaLKrPbNQAAAK9VsVHXv68mr/0gAAAA8Gi70GNhxzI/DAAAABVfQT4/GI5/Lbu+eXxRDn4wAAAAqlTZTtbXFHYu84MBAABQm6MB+d37k0+3fkAAAAAqGpCrfNRT3P3JWz8oAAAABmT9uj957wcGAACgYN8unw3Anp8MAABAeBSwbOQFAABgQDYg99jI6/HF80MEAABgQNbzRl6XjR8mAAAAA7LseA0AAGBA1ptLrx/8cAEAABiQ5dFQAAAAc3M0IBuUAQAACANyeGKRDMoAAAAGZAPy2IPysnnh/fABAADkZG9AnqrwwhuUAQAA8hmQw8pfGZQBAAAqtzUgu0cZAACAu8vGYGpQBgAAqJ1HPBmUAQAAWNjBelaD8s4PLAAAwGBs0DW7wk3jfnABAADcf6ynvp2++AEGAABItLz67rwyaM69cBO5R0QBAAD0XV69NGB6ljIAAIDl1bLzNQAAgOXVllfb0AsAAICd3avdpwwAAODqcZiXVO19ypZfAwAABPfnB5tzuU/5prkJ3S8EAADg6rH0cp/yyvJrAADAvcfS77tf7/ySAAAAFTgsvl0+GwR1xaZep1tXlQEAgGKXVn87fTH4yVVlAACgdlsbcynFvcoHv0wAAMBshV2rLa2WHbABAIDq7zu2a7UGKzxXOXwD4xcNAADI/b5jw7EswQYAAGzKdfrikU6apvDDZxdsAADAcCy9ul/ZsAwAAEx2z/Hp1nAsm3sBAAA25JJmMCwvXVkGAAAG4VFOsgwbAACo/n7ju/O2uSAnFTEsh2UQdsMGAADi7JtZwv3GKrb20VE7v+wAAMA/rxp//fnJAKUa71t2dRkAAPjv6WLayrAkuboMAAD1DsaWU0sf3rtsYAYAAIOxJAMzAAAU59DcY2wptZR8YN4uPE4KAABmcrX4dGvzLWmMwi9a2PQrPETcwQcAAKZ2bIbicI7+7fLZwCJNXfhFbHfK3rnSDAAAg9sv7i6bZrWnK8XSLJZnL5v7HX5dbTY4AwBAl3uJw/l0e15tIJaKu685XHEO90X8Gp73DnwAABiEm3Pj7dPqzJUl05KelmyHIfq8bu+laA4Q2+aA8Zqr0gAA5OrPc9fm/PWyeTm/bS4YPZ33evySevQ/C9ONKmaWUUwAAAAASUVORK5CYII=;" vertex="1" parent="1">
          <mxGeometry x="3334.49" y="201.71" width="42.45" height="23" as="geometry" />
        </mxCell>
        <mxCell id="z_aPiHpWdewL4F4yoZI_-36" value="&lt;b style=&quot;border-color: var(--border-color);&quot;&gt;&lt;font style=&quot;border-color: var(--border-color); font-size: 10px;&quot;&gt;stcompusamaprod01&lt;/font&gt;&lt;/b&gt;" style="aspect=fixed;html=1;points=[];align=center;image;fontSize=12;image=img/lib/azure2/storage/Storage_Accounts.svg;labelBackgroundColor=none;" vertex="1" parent="1">
          <mxGeometry x="3313" y="623.37" width="33.77" height="27.02" as="geometry" />
        </mxCell>
        <mxCell id="z_aPiHpWdewL4F4yoZI_-37" value="&lt;b style=&quot;color: rgb(0, 0, 0); font-family: helvetica; font-style: normal; letter-spacing: normal; text-align: center; text-indent: 0px; text-transform: none; word-spacing: 0px; font-size: 10px;&quot;&gt;Azure &lt;br&gt;&lt;font style=&quot;font-size: 10px;&quot;&gt;Monitor&lt;/font&gt;&lt;/b&gt;" style="aspect=fixed;html=1;points=[];align=center;image;fontSize=12;image=img/lib/azure2/management_governance/Monitor.svg;dashed=1;labelBackgroundColor=none;" vertex="1" parent="1">
          <mxGeometry x="3406" y="622" width="24.36" height="24.36" as="geometry" />
        </mxCell>
        <mxCell id="z_aPiHpWdewL4F4yoZI_-40" value="" style="endArrow=none;dashed=1;html=1;dashPattern=1 3;strokeWidth=2;rounded=1;" edge="1" parent="1">
          <mxGeometry width="50" height="50" relative="1" as="geometry">
            <mxPoint x="2994" y="729" as="sourcePoint" />
            <mxPoint x="2992" y="30" as="targetPoint" />
          </mxGeometry>
        </mxCell>
        <mxCell id="z_aPiHpWdewL4F4yoZI_-41" value="" style="endArrow=none;dashed=1;html=1;dashPattern=1 3;strokeWidth=2;rounded=1;" edge="1" parent="1">
          <mxGeometry width="50" height="50" relative="1" as="geometry">
            <mxPoint x="3729" y="730" as="sourcePoint" />
            <mxPoint x="3725" y="31" as="targetPoint" />
          </mxGeometry>
        </mxCell>
        <mxCell id="z_aPiHpWdewL4F4yoZI_-42" value="Resource-Group:&amp;nbsp;&lt;span style=&quot;color: rgb(50, 49, 48); font-family: az_ea_font, &amp;quot;Segoe UI&amp;quot;, az_font, system-ui, -apple-system, BlinkMacSystemFont, Roboto, Oxygen, Ubuntu, Cantarell, &amp;quot;Open Sans&amp;quot;, &amp;quot;Helvetica Neue&amp;quot;, sans-serif; text-align: start; background-color: initial;&quot;&gt;RG-TheCure-APP-PROD-001&lt;/span&gt;" style="text;html=1;align=center;verticalAlign=middle;resizable=0;points=[];autosize=1;strokeColor=none;fillColor=default;" vertex="1" parent="1">
          <mxGeometry x="3371.38" y="286.5" width="264" height="27" as="geometry" />
        </mxCell>
        <mxCell id="z_aPiHpWdewL4F4yoZI_-43" value="" style="shape=image;verticalLabelPosition=bottom;labelBackgroundColor=default;verticalAlign=top;aspect=fixed;imageAspect=0;image=data:image/png,iVBORw0KGgoAAAANSUhEUgAAAPsAAADJCAMAAADSHrQyAAAAk1BMVEX///9ZtNk5mcas2ux6enp2dnajo6Obm5tOsNeo2Ovg8fjH5PGw3O1nutxvb29ycnL2+/3V1dWHh4epqakfkcJ/f38tlcTi4uLo6Oi/v7+SkpL39/fGxsawsLDw8PBHrtZHn8nq9frP6fSjy+GRy+SYxd5prtGKvtrJ4O2+2upap850v96v0uV8t9adyOCMv9vX6PJTyyYBAAAI/ElEQVR4nO2da3viLBCGow1abTdRo7GeetpT99Dd/f+/7o2nVyFAZoYhodfF81Et5RbuDBBrkyQGmOWq2G03TI1Nvr6/MTWVPG53xWrJ1Zom01kmhMjzHUtrv8uynH8bs7RVZHnVs2w2ZWmtnod1lh6Tz9xbe3su+1XK+feJc1ubmTj1LFs/uHet3n6RnX9BmoqhY2sv3+b9U8ryt2vfhlc9ywouJf/PKr+0v39/nSbX5O+87F9SPrtpv8yuuybylVNraqaLPJUiBg6tVaL35bhpPxBy5/IFn/YX0S+hG//2PO/X4qT9rNY7Lu03RS5qjacLYmtXoiv0dO0X9e6JnEP7ldCQU8ddEV2hp2pfH/c9vXDVfprmuoZTUVBaq4uuav9CabbQjo6j9jrRT0IRllBa0Tm0Xxp7SdZequjKW4q/zBtFZ9B+oJ+c9GpvEP2AvsY2ZhVdmfgE7dcmeJL2tYp+/Waim2sSXaHHa78yTlG09mbRK4kGj8iOAURXJv78L1b7x6GlxwjtLaJX2xjsVQ4oukKP1345s8xUqPY20dMtskcI0eUQtN8aCnIK1d4mOn7j/rtPIz/Q47Xf6Zagp2Fr1L5j0eW0qv1m0LnoCn1r2lsKhWhPdIW+T9DejGHY2y+DEV0OYW9v1V4zfbcWUYYtiy6HsMi3al+bwSvjizsRXaEvPyO7YNNeXZYaR10IrOgJj+gKPaHaG5cp8sibdoEU0VFLd3g4tb/egW9Mr+lWdDmc2otLrRtq2fGij7lFV+jZqv3lmFk74/GiT757EF2h59I+Oy/x1vVnRRaM6HIo2muWbOJ0+qIZdorobZD32bQ/DXztmDNH3870LLpCz6G9OM5r9VH80t2/6Ao9ZW+vjPDh5ooy5cUae7L5uRXR5eC13yhXtWxv9VaZDsg2WxNdDkF7Rey917LuOU718c8WRVfpkdpPpUE+CK8sbDCttS66Qo/UXgI93FWT2FH31bsQXQ5Oe5l06MDekehyUNoPmNhbrei2IKo9D3vHossBa8/C3r3ocoDaM7BPQhBdTjn/2w775+DQq8x/tMMeyFVOSvm1FfaJv3Mpcso5wHiWa90PthsPTJm/Q6o8U33/GtKVfv7zH6jTXGubl/dQJn7ZB1zmWNmT5F8Q2pdz+C0bPva2TietgYnugb1z7aGie2HvVPvyGSq6H/ZK+45ObsryD7ar7OwdVfv5O/5jxx7YK+3b3tEiRffJ3rL28IreBnub2hNE98zemvYU0d3ZG1cRLWhPE92Vfdy7/dW0T/StPUD0yau5k2T2X71e7+lL09j71B4g+uRuNBq9srN/qth7t7ejpl//w9dpHkD019FNlXs/7BV9766pB15OcQGij28O6P7Yq4nfqP2EXXuA6C/3R3Kv7BDteW/PlnOI6Dc3bbD3bp9umjrDWO0Be/TX0QXdM3ub2iNEb4kdon1V7Z3pUaK3xt5GtQd8fvpa9BbZq2rvV3uQ6Cp5S+wg7f9QJ/78Z+OtFkX0dtmB1Z5ADziMq4neNrsf7Wmit8/uQXtsRe+OHVbt4ROfLHon7JyLfEpF75adS3sn0Ttjr7Q3/tJzmvb2pZvo3bFX9J+MRybnWBf5+KV7OOx77ZvOVszau4veLTt9b88hetfsIO1r1Z5H9M7Z99pj9/aAz0VCRA+AHbvIB3weFiZ6EOwY7RlFD4Qdssh/q7SHfP4dLHoo7LBF/jNAdCR5EOwQ7RuDEj0kdoj21iBFD4sdor05usO4D8QO0l4fREUPlZ2oPUX0ANkJ2tNED5Idqz22ogfNjtKeLHqo7GDtHUQPlx2kvZPoIbM3f1zHTfSg2Ru0dxU9cHaL9u6iB89u0J5D9A/AXmlfg2cR/SOw925V6V/4yD8c+ziyR/bIHtkje2SP7JE9skf2yB7ZI3tkj+yRPbJH9sge2SN7ZI/skT2yR/bIHtkje2SP7JE9skf2yB7ZI3tkj+yR/eOwf7n9IOwj46fU6d9P++XpQ7Cb0V2+m/flFxe9P/bRveULN5y+k/n1E8/E98U+urH+OZLj91Hf33LQ+2G3fCsvC3sy4dDeC/vorumvsNy/h3zsrr0HdqvobOyV9j3Hic/OPhpB/u6Q5/vnHbVnZm8UnZW90t4Fnpe9WXRedjftOdkhonOzu2jPxw4TnZ+drj0XO1R0H+zUas/EDhbdCztRexZ2hOie2JPkDq89A3vD0h3ILj2C/vfv+6C1d2ZHin6KxHkY5Z3Ejvz/78dgtXdlx4p+jOb/v2+lh0gDj9XejR0v+jEyZr6tHnrI5Lmw3pBavkPs7V3YKaIfMpTdzh7q70cq0i2t8Ruw9nR2muhVtqmMni4ODxfKo2k+o0iP0J7MThM9SZYzRexUFMcnslRNNnwk/Q6g9kR2quiPQw3hw/G5tTrw1duS7Ui/BqY9iZ0s+i7T8K1PT2oGvnpWELUHVHsCO110USevhn15fn6oe7rSfmlr1Jhm7fHsfKIfB/ayfN1oX0DXvukkH8vOKfqR/aqOT02vyYna2/f2OHa66Ll2Pl/P+H1WBng/2mPYmUU/oCtIOxO8D+0R7MyiH9BX6ouNI++h2oPZ2UVPTwt5JcvU+E7RtddXeyA7v+gV+eJB+yMrzSLgTE9d5Gu1B7HzLd2vB7E238/ZDMz0nNpD2D2ILrLCtkd9WFu0H3BV+2Z2H6Jna/10v2S68K99E7sf0SGb05WxMFZXQxbt7ewOopuHTRhFl7MpPGtvZW9fdDmetbewdyO6HJv29YURLP9rb2Qni24pzzDRleYs2q+bf1yb++MWx8ROFT1Zu4sux6J9jr99c8xR+yeV8cBOFT1JBiZ0lOhyzNpntCtectD+6VPt0dGIKnpiOHc69BIpupypoWycjjlJ+af75OOYTK45aD5NToLocgzazxyb5cxMOzo00eVsCt1iaeHeMFsWGvKcLLocnfZhj7ub6HJq1Z5wn95flLvoDKLLWckTn36d9xD5pNWyR6dGqvaHDy2Ek6v7Cw4V3ZaL9iKkK90+szM8p+hyprNMCJFnQx9vrVMG+46JjHgDGZblqthtafs4v3lcFcUqpItQ4PkPi5ml+lAmQz8AAAAASUVORK5CYII=;" vertex="1" parent="1">
          <mxGeometry x="3348.9" y="291" width="22.48" height="18" as="geometry" />
        </mxCell>
        <mxCell id="z_aPiHpWdewL4F4yoZI_-59" value="" style="sketch=0;html=1;dashed=0;whitespace=wrap;fillColor=#2875E2;strokeColor=#ffffff;points=[[0.005,0.63,0],[0.1,0.2,0],[0.9,0.2,0],[0.5,0,0],[0.995,0.63,0],[0.72,0.99,0],[0.5,1,0],[0.28,0.99,0]];verticalLabelPosition=bottom;align=center;verticalAlign=top;shape=mxgraph.kubernetes.icon;prIcon=api" vertex="1" parent="1">
          <mxGeometry x="3391.7500000000005" y="539" width="22.5" height="24.37" as="geometry" />
        </mxCell>
        <mxCell id="z_aPiHpWdewL4F4yoZI_-63" value="" style="shape=image;verticalLabelPosition=bottom;labelBackgroundColor=default;verticalAlign=top;aspect=fixed;imageAspect=0;image=https://www.freelogovectors.net/wp-content/uploads/2022/03/azure_kubernetes_service_logo_freelogovectors.net_.png;" vertex="1" parent="1">
          <mxGeometry x="3194.3800000000006" y="407.8399999999999" width="35.68" height="31.36" as="geometry" />
        </mxCell>
        <mxCell id="z_aPiHpWdewL4F4yoZI_-67" value="&lt;span style=&quot;color: rgb(32, 33, 36); font-family: Roboto, arial, sans-serif; text-align: left;&quot;&gt;aks-service-thecure-prod-001&lt;br&gt;Ver. 1.24.6&lt;br&gt;&lt;/span&gt;" style="text;html=1;align=center;verticalAlign=middle;resizable=0;points=[];autosize=1;strokeColor=none;fillColor=none;fontSize=12;fontColor=#000000;" vertex="1" parent="1">
          <mxGeometry x="3131.84" y="440" width="175" height="41" as="geometry" />
        </mxCell>
        <mxCell id="z_aPiHpWdewL4F4yoZI_-71" value="" style="shape=image;verticalLabelPosition=bottom;labelBackgroundColor=default;verticalAlign=top;aspect=fixed;imageAspect=0;image=data:image/png,iVBORw0KGgoAAAANSUhEUgAAAW8AAAEGCAYAAACqxxSGAAAgAElEQVR4nO3dS2xj150m8I/3/eKl+BJVkspVcqcqsQZxLVxpBMikC9OLQbtXQZJt7QZwr7oB7wKkVx0gOwO9i4HZeRtn2TZmkYbbDXSAVE1PGROVx3JMyVKppCKpBx+Xj0tSs6Aui6Ioio/7OPfy/9s4rhevnfKnU9/533Ni5+fn5yCEEBIqXNAPQAghZHoU3oQQEkIU3oQQEkIU3oQQEkIU3oQQEkJC0A9A2GDZXRTqNnbOGijUbXx53EDN7vS/r9Z+/b9Hyapi76+aCE3srQneiEvIqiKymojNtObDPwUhiyNGo4KLx7K72CpZeH5cx1bJQqFuXxvKbsqqIu4k5H6o/2Al3g96Qsh0KLwXgBPWO+UGnh7VsFtuBv1IfZtpDXdMGe/kdFqdEzIFCu+Isuwu/iV/jKdHNd9W1m54uGLgnWWdVuWE3IDCO0KcFfbH26VQBfZ1nCB/dDsR9KMQwhwK7wjYKll4elTDZ/tnoQ/sUbKqiB+vx/G3GylajRNygcI7xLZKFj7aKjDVYXvt0XoCP16PUz9OFh6Fd8hYdhc75cbChfawO6aMv7m7RJUKWVgU3iEx2GcvcmgPe7hi4PFbWWQ1MehHIcRXFN4hsIj1yLTe3Ujib+4uUYiThUHhzTDL7uLj7VJkNyK98O5GEo83s0E/BiGeo/Bm1Gd7Z/joeYFCewaayOHv3l7BwxUj6EchxDMU3ozZLTfxm2eHVJG4gFbhJMoovBlCq2333TFl/N2DFdwx5aAfhRBXUXgzwOm2P8mfBP0okfV4M4t3N5JBPwYhrqHwDhjVJP65Y8p4/51VmkghkUDhHSCqSfyniRz+8Ye3qUYhoUfhHZBP8if4aKsQ9GMsrF/+cJ1esSehRuEdgI+2CtRvM+C9t3P0ej0JLQpvH1l2Fx9tFfDZ/lnQj0Iu0EYmCSsKb59Ydhe/+eIQTw6rQT8KGULz4CSMKLx9QMHNvs20hl/+cN2TX9s5CXK33ESx3u5/W63d6W9WO5c96yLfP7NcF3r/WxVi2Exr/cucCQEovD1HwR0ej9YTeO9Bbq5fY/C+0C+PGyhYNgp126Un7Hm4YkAXeLxhSniYMyjQFxSFt4couMPnp/dS+Pn9zFQ/Z6tk9W8zCmJeP6uKeLhi4K2USue5LBAKbw99+OyINidD6KYpFKcGeXpUw5PDqusr63k9XDHwV2smBXnEUXh75LdfFfG77eOgH4PM6P13Vq+En2V38S/548BW2NPSRA6P1hN0znlEUXh7gF7AiQbnRZ4oXPBMNw5FD4W3y7ZKFj54ehDa/8jJa5rIIauKoVhlT4pCPDoovF1k2V384vNd5jpQQoZRiIcfhbeLPnh6QJMlJFToBaXwovB2CfXcJKw0kcPjt7J0zkvIUHi7gHpuEgWP1hP46b0UVSkhQeE9J8vu4u//9RsKbhIJdHlzeHBBP0DYfbxdouAmkWHZXXzw9AC//aoY9KOQG1B4z2GrZNEblCSSfrd9jF98vksLE4ZReM/hd9vH9JubRNZuuYm//9dvIjXnHiUU3jP6JH+CrZIV9GMQ9I5zfbyZRValjTa3Oe8u0O919tCG5Qxok5INd0wZP7uXvrS5tlWy8Pl+heosD9C1cWyh8J4B3UEZLE3k8LN7aTxaT/QvLhjlk/wJPs2f0huvLqJr49hB4T2lgmXjF/9OGzlB2UxreO/t3FSzyE8Oq/2Dpcj8ZjnznLiPwntKdNRrMDbTGn56L4XNtDbzr1GwbHy2f4ZPd07pi++cqEIJHoX3FGjV7b9JK5JpfbZ3hs9fVGgjbg4U4MGi8J4Crbr95cfr2rvlJj7Nn1KlMiPnzHPiPwrvCdGEiX+c0b87puzr59IG52wowINB4T0hWnV7z6uKZFo0bjgdTeTw6/96hw608hmF94T+4fd5WpF56NF6Ao83s4GG9ii0Gp/MZlrDL3+4HvRjLBQK7wk8Oazig6cHQT9GJAVVkUyLxg1v9mg9gfce5IJ+jIVB4T0BuiHHfaxUJNMqWDaeHFXpNMlrvP/OKh0n6xMK7xvQRqW7NJHDD3JxJiuSaT05rOLTnVMaNxxA/bd/KLxvQNebuScsFcm0dstN/Nt+mY5MuED9tz8ovG/wqz/s08pqTl5VJLZt4/DwCDs7eXAch7fffhvxeNy1X38WtMHZQ/WJ9yi8x9gtN/GLz3eDfozQ8rIiKZVK+NPWc5TLZUiSiK+3twEAGxsb2NjYwPe+9z1XP29aiz5uSPWJ9yi8x6DKZHZeVSS2bWN7+2vs7e/Dtnur28HwHvTgwQPcvXsXa2trrj7DtBZ1Nf5wxcD776wG/RiRReE9Bk2ZTM+pSLw4NvTw8AhbW1uw6vVL335deDvi8TjefPPNwGuVRRw3pPrEOxTeY9CLOZPzcvSvXC7jq+1tHB4ejfz+m8J7EAu1ijNuuAir8awq4p//eiPox4gkCu9rUN89OT8rklGmCe9BLNQqizBuSKtvb1B4X4P67ptpIofHb2U9ORa0VCrh2bMvrlQko8wa3g4WapUojxvS6tsbFN7XoL77ekFWJKPMG96DWKhVPsmf4N/2y5G6tZ3O/nYfhfc1qO8eLeiKZJRx4a0bBjRVg1W3UKtO98U46FolSuOGmsjhf/737wT9GJFC4T1CwbLxD/+aD/oxmJJVRfz0XsqzisSZ2Z7FTeGdTr++b7FSLsOqW2g2GhP/+plMBnfv3sVbb70VWK0ShXFDWn27i8J7hK2ShV/9YT/ox2CClxWJbdvY2nqOvf35/l1PE96OdruNumWhUimj3W5P/FlB1yphHjekuW93UXiPQJuVPSxWJKPMEt6D6pYVulrFsru9y5RDthr/5/+2QW9duoTCe4QPnx2FcmXjljumjJ/dS3sy3jVvRTLKvOE9qG5ZKFfKoapVwjRu+Hgz68kLXIuIwnuERZ008boi2d7+Gt/k3d9LcDO8B1XKZdRqVbRarYl/TpC1ym65iT8eVpi+ro82Lt1D4T3CIk6abKY1vPd2zvU/0jon/209f+5KRTKKpir48ssvR37fPOHtaDQaaDYaqFTK6HYnP9c9yFqF5XFD2rh0B4X3EMvu4n/8r6+DfgzfhK0iGcXr8B40Sz8eZK2yW27i0/wpUzUgXZfmDgrvIYsyJuhHReLWhuRN/AzvQbOMHQZZq7AybkjViTsovIcswpkmXlUkALC3t+9pRTJKUOHtmHXsMKhahYVxQ5o6mR+F95Aoz3h7XZF8tf01SqWS67/2TWYN73a7DUEQXH2WRqOBWq0amlolqNU4TZ3Mj8J7SFTDezOt4f13VpmtSOxWC3/+89f4i7/4DkRJmurnzhre+3t72Nv7FomlJWQzWWSXl6d+7nHqloVqrYq6NfkIX1C1it+r8TumjF//+I4vnxVV7i47IqBgRXPKRBM5T64im/Tkv+u0222UikV8++3uVJWDG7rnvcmRs9NTnJ2e4uuvt10NclXToGoagMnHDvP5PPL5PH7/+9/7Wqs8XDHwcMXAT++l8Nn+mefjhixOwYQNhTeZ2iwn/41yenqKb77581Qbfm4aNfY3GOSpdBrZ7DJSqdTcnxU3TcRNE61Wq9+P3zR2+OzZMzx79szXWiWrifj5/Qx+fj+Dz/bO8PmLimcv/+yWm66/vbtIKLyHWO3J53gXjVsVSbl8ht2dXVSrFRefzn3HpRKOLzr87PIylpeXYZrzzSdLkgRJkpBYWpp47LBYLKJYLOLJkye+1iqPbifw6HbCs3HDrZJF4T0HCm8yETcqkmaziZcHB3j16gidTsfFp5vNNM9QePUKhVevAAC3bq0ilU7NHeROrZJOZyYeOwyiVrljynjvQQ7vPci5usH5bXnyN1fJVRTeZCw3KpJ2u439vT0UCq9877XHSaVSsFst1Ot1NKaobl6+PMDLlwcQBKFXq7gQ5E6tMs3YYRC1yrsbSby7kXTlrPGdcjB1WVRQeA/RBHc39cIun9+ZObjb7TZevjzA4cuXTIX2IE3ToF1sKlqWNVWQO/98L18eQJZlpFJpZJeXoev6zM8jCEI/yCcdOwyiVtlMa733BeZYjQf9slDYUXgP0UU+6EcIvW63i2q1gp18HrVa7cYfz3EcRFFEIpEA7/Lc9TTmCfJms9kPcl3XYZoJ3FpdhSzP3ukqigJFUZBOZybux4OoVZzV+LTjhpbdhWV3XZ+CWhQU3sRVxUIBu7s7E53ENxjaosjW23bzBHmtVkOtVsPLlwcwzQTMhInl5dxcQT7cj08yduh3rTI4bvjkqIqPt0uw7PEDAIW6jTsibVrOgsJ7CL2yO5uTk2Ps7e1N9GYhx3GQJAmmaTIX2qMMBzkAnJxMdst7uXyGcvkM+3t70DQNZiKB1dW1uYJ82rFDv2uVrCZeWo2PO2u8Zge/cR1WFN5DqPOeTrPZRD7/Dc5OT2+cWxYEAclUClIIAvs6mqZhdW0dgiDg5csDHJeOUS5PWBNYFizLwuHLlzDicSSXkli5dWvmV/RnGTv0u1ZxVuO75Sb+bb+MT/KXv+gVLBtIe/bxkUbhPYQ678nVqlVsbf3pxs1IZyrD6YAPXx5MdcEBq27dWsWtW707GacN8mqlgmqlgr29bxGPx5FdziGXm/2Y1FnGDv2sVe6YMh5vZvF4M3tpg5Peq5gdhfeArZJFd1dOod1ujw1uQRCwcuvW3H1vGMwT5JVKBZVKBd/8+WuYZgLLy8tzvZ4/7dih37XK4Lghmd3Ch7dld7FTbuCjrQKdtzCl615y4TgO2WwWa+u3Ix/ao8wT5E5H7sY5K8Njh/W6hcoNF2P4WatspjVPft1FsbDhTaE9v+GOm+M46LoOwzCQzS4vZHAPGwzyrT/9396Vas3Jfr9dOmcllUJ2OTfzOSvO2GEymZq4Hw/iJSAyuYUM7yeHvTEmCm13cByHeDwOTdPAcf5v+MYC+MxZGIYBw+idpV6tVqcK8uPjYxwf9076m/f1/GnHDoM6W4WMt1Dhbdld/OaLw4W8Gd4riUQisNAOs3mC3HkZCJg/yIfHDmu16th+fLhW+e53v4tMxtubishoCxPeWyULHzw9uPGlATI5URT7AURm50aQz3vOyixjh8O1yoMHD6gq81Hkw9uyu/h4u3RlvpQQFg0Heevi4KybDJ+zYiYSSKfTSCan78inHTukWiUYkQ7vrZKFD58d0QE4JJQMw4Cqachml6eaWmk2m/0jbCVJgm4YuH37jZkOzJp27JBqFf9ENrx/+1URn+6cUk1CIsGZWmm32ygUXk0c5K1WC63jY5wcH0NRVcQNA7dW16YO8lnGDqlW8VYkw/vDZ0e+XaRKiJ8EQZg5yBv1Ohr1OgqFAhRVhRmPY3VtHaqqTvUM044dUq3ijUiFt2V38dFWgYKbLAQ3gvzVq1fQDQMJ08Ta+u2pz1mZduyQahX3RCa8aQyQLLLhIN/7dhcnJycTTa3Uqr0LHw4ODpBMJpFOZ2Z6q3PasUOqVeYTifCm4CbkNUEQkEqlwfM8ut0uLMuaePzw5OQEJycn/bc6nduBpjHt2KFTqzx9+hT379/H2toa1SoTCH14U3ATcj2O4/rjh9MGufNW5zxBPs3YoaIo/c98+vQp7t27hzfffJNqlWuEOrwpuAmZnJtBPss5K06t0u12UatWL40diqJ4aQJGkiTs7u5id3cXqqpiZWUF3//+96lWGRDq8P5oq0DBTcgM3AhyYLbX8zmOuzR22GjUwXMcYrHYyB9fr9eRz+exvb2NXC6H1dVVqlUQ4vD+JH9CUyWEuGAwyLPLOZyenqDw6tVEl0cPnrOSyWSRW8lNFeSKoiCVSkEURTQbDTSaDdSt0ed8C4KAUqmEUqlEtQpCGt5bJQsfb5eCfgxCIofn+f7USrPZxPFxaeIgLxYLKBYL4DgOqVR6oiCXZal/j6msKJAVBYnEEqxaDfW6Bdse/XY01SohDO+CZdMBU4T4QJblmYK82+32g1wURSQSS1hdu/pWJ8/zkGVl5K+h6To0XYdt22hevNF53eUfi1qrhCq8LbuLD784ouAmxGezBrlt2/0gl2UZ8biJN+7c6b+leV3P7RBFsXd6ZTxOtcqQUIX3x9sluveOkICNCvIX+/vXVhyOZrOJZrMX5Llc78LlbHYZoiRN9rlDtUqj2UDrmg3WRahVQhPeTw6rdKwrIYxxgtxutdDpdFCv12FZ13fVAKBp2qVVsq4b0A0dqWRq4iB3apXzbhf1eh21WnXhapVQhLdzJjcho9AtPmzgeb4/tWLbNprN5pUg53keicTlTcxarYparYpXR0cwTRO6YSCZTIHn+Rs/M8Zx/SBvtZpoNhrXVjlRq1VCEd6f7Z/RfZOEhEi/qx4I8kajAV3Xx36xLZfLKJfLeHlwANM0YZoJJCd8GUiSZEiSjLiZuLEfj0Ktwnx406qbkHBzgjybzUJRFNi2jUajMfbQKuB1kO/v700d5NP0406t8tVXXyGXy4XmbBXmw/vj7RJNlxAScs7r77FYDIIg9M8QF0QRJ8fHaIy5Zg24HOS6bkBVFSznViaqViYdOxRFMVRnqzAd3lslizYpCQm5WCwGwzCujAWKooh0JotMJot6vY5y+Qwnx8c3Tq04HXmxWISiKDCMOJZzuRuDfJqxQ6dWOTg4wE9+8pPp/oF9wnR4/277OOhHIITMyTTNGy95UFUVqqoil1tBrVZFtVqdKMh7Z6M0UCwWYBgGlpaWkEylb3ymwVqlblk4Ozud6p+JBcyG95PDKs10ExJyqqpCmnD8z6HrBnTdmDrIq9Xej93f358qyFVNQ6VSRrcbrnqW2fD+dCd8XwkJIa8JgjDTjfWDRgX5cal042anE+QvXry4CPIklpLJuZ6FNUyG9265SatuQkLsup57Hk6Qx404SqUiWq0WGo3G2BXz+fk5KpUKKpUKREma+4sJS5gM7z8eVoJ+BELIHHRd758W6AVn81G/mCKZJMijhrnwtuwuPt+n8CYkrBRF6Y8C+mFRg5y58N4qWSjUx29MEELY5LwiP4mYB8caLFKQMxfetFFJSDh50XPPYzjIo3YGDlP/NLRRSUh4KYoy9VigX0RRBM8zFXdzY+qfhjYqCQmn4dvfifeYCu9vK62gH4EsEEmUIvdH6SCwVpcsCmY6b8vuUmVCfKUbBnTDQLfbRd2y+mddRHFzy0uqqsKqVYN+jIXDTHjvlBt0eiAJBMdx/SBHGmi32/0wb0Z0UsEtg7e/E38xE9502QJhhSAIiJsm4jAB9A4/slutfpiTnnG3vxPvMRPez4/rQT8CCZisKDN10DF427U6N507YU4r8V7Praoq9dwBYia8d89o5b2oZEVBMplidsxsGG1yAoosT3QRAvEOE+G9W27SW5ULSJIkJBJLUDUt6EchU5AkCZILdz3Sqn0+TIQ3TZkslhjHIZlMQTeMhVrFqpp27c0tYcFxHBSFem4WMBHexfr4s3lJtORyK759Vq1aRbPRgKwokESp99eA6plsdhkAULcstFot1Ou9v4ZFLBaDoii0YmYEE+FNI4LES+12G+1qFbWBb1M1rR/mfq8kVU2DqmlILC1dmjGvVdmelaaxQLYwEd619tWbnAnxUt2yUIcFnPX+3lmRC7wAVdNuvHPRLYMz5ul0pr8qZ20sURAESNL8PTdxDxPhXbBos5IEq9l4HZYnJ8fgOO5S1eLX6ry/Kr/4+wYDAU51CZuYCG+qTaJFkiTwPq1cveLUGYOrc2dFrsjKzDPp02Jhc1BVVRoLZBAT/4VRbRINHMchkVjyfYpEURTIsoxm09t3BZxJkQrKAHpVAgsboV6inptdTIQ3rbzDT1YUpNMZ37piAEin0/gvm2/BNE385V/+AJVKBcViEYVCAS9fvsSLFy88/XzWNkLdRq+/sy3w8Ka+O9xkRUEiseRbUImiCNM0+6E9KB6PIx6PY2Njo/9tL168QKVSQalUwosXL1AsFj19vus2Qv2sWgAgsbQEWVHQbDRm2vyk19/ZF3h4W21adYeVbhiIm6YvgSSKIu7evYNbKytXQnuctbW1K9+Wz+dRKBRQKpVwcHDgad3ibIQ6VYufG6HOmSzO5ufgSYk3zZf78fr7Ir2g5YXAw1sT6P/AsPKjInFC+82NDde6142NjUur82aziYODA1/qlus2Qv0Ic2eSxXmOWrXaP8N8kFuvvxNvBR7euki72OQqTVVxd+Mubq+ve75hJsvylUCvVCp48eIFSqUSisWip4E+HOZ+bIRyHHfp2FtnvlwQhNB39Ysi8PAmZFA6nUYut+xLaI8Tj8fxve9979K35fN5lMtlHBwcoFgsolLx5s7VIDZCVU2DpuvUc4dI4OGtiVSbkF5o37/3HaTT6aAf5VrOyvzBgwf9b3P6c6/rFj9mzmksMFwCD2+gF+A0Lrh4xk2OhMV1dUu5XPY00N2eOafX38OHifDWBZ7Ce4GIooiVXA4bG3dDG9rXGVW3OCOK1WrVs3HFeaoWN8YCDSOOZrMB26bRX78wEd5ZTaTLGBaAMzlye/02NE0N+nF8s7a2dmVk0Y9xxXEz56Ik9aeFVFWdu3Yx4nEY8TjOu100Gg202zbq9TpdGechJsL7jinThQwRJooi7t37TuCbkCwJYlxx1Mx5YmkJPMfh/LzrSm0S47j+OGLcTMC2bditFpqtJlOnJEYBE+GtCrS7HUWmaWJ9fY1CewKjxhWLxSKKxaJn44ocx4HnOFSrFeDiKHFZUSDwPGRFgSiIiM25IhdFEaIoQtN1AL0vILZto2WH5xIKVjER3ndNmiuNEr/G/WzbRrlcxu6336Jt28hms8hkMojH4559pp8ymQwymcylb3NrXDEWiyEej1/puZuNBpoAarVee87zPCRZhiiIEKX5p1FkpTcdQ+bHRHhvpukC2igYPCjKS7Zt4/DwCPmdHZTLZei6hudbW5d+zMbGBmRZRjqdRiaTGfmafBi5Na6o6/pEb8h2Op2L7vw1Z1UuyRJNqASIifDWRA5ZlTYtw8jPcT/btvFNPo8X+y9g1etjf2w+n7/ybfF4HJlMBul0GmtrazBNMxKr9GnHFRVFgarOvmHcW503rlQtkiRDkqS5qxYyGSbCGwAerhj4JH8S9GOQCc16UNQspgntcSqVCiqVCvL5PJ48edL/9o2NDZim2V+lD1cVYTPu7dCTkxO0Wi2cnZ259nnDVQvHcRAlCbIkQxDdnx8XL85eaXl8fjvrmAnvN+LRO8g+irw4KOo6Tmjv7Ox6Oj88apXuhLhhGCNH/cJmcGXuODg4wMnJCYrFIk5PT127yb7b7V66Vg5wt2oRRRGpVO9N3N4Jic2FHEtkJrx/sBLHh18cBf0Y5Bp+HhRl2za2t7/G3v5+YC99OJMeAPqr9MHaJQqbo6urq1hdXe3/favVQrFY7Af6q1evXPus4apFFEUIojj3RqizAbqIY4nMhDf13mxKpVKIm/GFCe1xBmuXQVHZHJUk6Uqgn56e4vT0FGdnZ3j16hVOT09d+SzbtmHbdn8j1Kla5lmdjxtLjGLFwkx4A9R7s+j27XXPP8Oy6tjZ2WE2tG8S5c3RpaUlLC0tXfq2g4MDVKvVft3idN3z6FctLm6EDo8lnkesVmEqvH92L03hvUBKpRKOjl6FNrTHmWRzNB6Ph3KV7qzM79+/D8C7usXtmfOoTcEwFd5UnSyGKIf2Ta5bpa+trfU3RzOZDOQQ3WQzqm6p1WooFAo4OzvD6empK4FOM+eXMRXeAPDj9Th+t30c9GMQD5RKJXy1/TVKpZKrv26n03H11/NbpVLBl19+CeD15qgsy1hdXUU6nYZpmqEbYdR1HfpF9+xw6hYn0N3oz4erlt7KXFiImXPmwvtvN1IU3hFTKpXwp63nKJfLvn+28x9wp91Gu932/fNn1Ww2kc/nI7U5Orgyd7g9rthqNtFqNq/MnEdxdc5ceGsih0frCXy2795LBCQYQYa2Q5QkpNOvV6ztdht2q4VWq4V2p93/+7DMCEdtc3RU3XJ2duZaf37dRmgUwpy58AaAx5tZCu+Qcg6LCjq0ryMIAgRB6B9bOqhuWeh2u2i322g0G6FZrQ9vjiqK0u/R9Yt7KZPJJLLZbNCPeiOnbhkM9EKh0A91N8YVh8Oc5/nQfPEexGR4ayKHhysGnhxWg34UMiHWQ3sSg4GeGPj2Uat1Vl8C4XkehmEAwMhDqnRdx9LSEhKJBJaXl5FIJDy5nd5N2Wz2yheewXHFQqEwV90S1j0TJsMb6I0NUnizb/iEvygKy2r9umNeB9VqNdRqNbx48QJbFycxSpKEbDYLXdeRSCRGznazxq9xRZYxG953TJm6b4a5dVhU2LG0Wtc0baa3YFut1shV+traWu+NRU3D8vIy07WLX+OKLGE2vAHqvlnkVWgXCwUUS0Wsr63DCMlm2zh+r9ZFUZzrmNdRBgPdWaUP1i7JZBKJROLKSCArbhpXdLr0sGI6vDWRw0/v0eggC7w4d8S+OJp0d3en31nmcrmpf53zc1cexzdur9ZjsRhM05zr9vdJDdYug5xVuhPqrK7S/RhX9AvT4Q305r4/36/QW5cB8Sq0d3d3cHZ2Fpr/UPww62rdNM25b3+f1ySbo5qmMblKHzeu6NZBXF5gPrw1kcP7D1fxi893g36UhfT55//uWj3Sbrexv7eHo6NDV0ezOh32x/nmdd1qned5iIIA27bR6XbQ6XSYOUFv1OYogP4II6ubo6PGFVnEfHgDvc3L997O0XnfIVUun+G4dIxC4RVTc9PlchlWrQZBELCUTE50pyNLeJ6HruuIxWJXLvU973bRunj5qNPpoGW30Gm3mRiLG7VKd0I8DJujrAjN79ZHtxN4+qpG44Mh0W63YVk17OTzE28K+f1H/9PTE7zY37/0bYqigBcEKLIMjuMuKgmeuXCPxWJQVfXanjvGcdfe0t7pdNC+OE+bldX64FknYdwcDQI7vxsn8Hdvr+AXZ7vUfzPMbrVw8IU+1+YAAA1nSURBVPIAZ1Oc8yzLMhRFgaZpUNWrfa+fGhcbhLVqb5FQKBQufX/v8l4NutELkUSiV2KYZgJ+UmQZPM/P9HN5ngfP81fC3Ql1VlbrYd8c9VqowlsTObz3IIdf/WH/5h9MXCGIIjBB5223WvjzN3/G2enpRH02z/MXYa16fkOPmxqNBhqNBk5OehNQ+3t7l77fNBMQBL5/m0sikYAsK64e8SpdXMDrNifUR2FptR7mzVE3hSq8AWAzreHxZhYfbRVu/sHEc8589iShLQgCkqkUNE1Dq9kMfELCC+Vy772E4+PR4a6qKnhBgKaq4Hj+oufVJw53juOgXFOHeIn11fokm6O6rkdqlR668AaAdzeSeH5cp/47YP/5n/8bjRtW5YIgQNN0LC8vI5lKQRAElEpFtBfsEgZH/eLfV7VSAQAcvnx56fs1Te/9O9M1cByHZDLZX7nf1HMHgfXV+nWr9Gw2298cDcP5LqOEMryBXv/9T9YedstsjEUtou6Y1ZVpJpBKp5DNLjO10TfIOXmv0+nAvlg9ti9WjZ1Op/+//WRZvX0CZwV/MBA+8Xgct26tguc5KBdvUxqGAUmUIDIYPqyu1p1VOoAr57s4K3QWRxiHsflf1QQ0kcM//vA2/ukPFOCscHrsXG4F2eXla38ca8dvjls9AugH+fn5OVqtFuKmiWql96c+J2S9JssyDMNAreZ8bu8QsFdHl8dndd0Az3MQRRGdTqcX7rLCVP877t+3bdvoXnwx9XO17pzvMrxSX11dxY9+9CPPP38WoQ1voBfgv/7xHfzqD/vYKllBP87C4Tiu38EahgGe5wPrZL00GDaKomB1bf3KnyaaF7e3dC7egGw2m2g2mmhe/O95cByHpaWlifYInHB3DL8hKEkSOJ6HctGxx+MmREliJtxFUQREkZnV+qjahRWhDm/HL3+4TgEegEQi0Q/wILHw4oksy2M3HZvNJr7d3emv3gH0/3pTuC8tLblWPTmf6exVDId7r3Pnmatlxq3WW60mzrvnTEzC+CkS4Q30AvyDpwe0iekjRVGYemOSZYPhft2fTEZ175qmwTAM186Vucnrzn18LTMc7twN1ZOXnKvMWFmt+yUy4Q0A77+zig+fHdExsiSUhleXgiAgt7KCVCoNoDdL37Jb6HQ6/amVWrUXto1G3ZdQuqlzd2oZWZIuLocwISuK68fVTuKm1Xqn3Vuld7od1K3w/ak9UuENAO896B0pSgFOwmzUrTii9Lq+6L/ROXSCrt1qod6oo1atwbJq/VVnp9PxZaP4plpGluV+587zPMxEIpBaRpJkYOAjm40GcxvpN4lceAO9AH/DlOhFHhJauq7P1HM7Ac/FOIwaB3fC/Pz8vF/FOH/1I+Cdft9Z6RaLxUvfP1jL8DwPVVWZ6NxZFMnwBnov8mymNfzm2SGNEpJQUTysGQY3mEe9mJLOZIHzc9QbdXTavZ641WrBbtlotZqed+/DtcwgnuehKL1/L4LA984+V1VIstI7UCygzj0okQ1voHeU7K9/fAef5E9oFU5CYfD296AM1jOjdDqdfsfudO+nJyc4Pz/3dPXe6XSujEIOisViEEURHMdBkiSIoghJkqBqev/voyTS4e1wVuEfPDmgEwkJsya5/Z0FvXPEe19gnO79fCiwnYkZp6bxo3sfHMNsDF0fpygK7t3/riefG5SFCG+gtwr/57/ewEdbBXySPwn6cQi5Ytbb31nkrH6vc35x8ahuGGi1ehM0XtYz3bBddDqBhQlvx+PNLP5q3aRV+ISiEias8+L2d5bFYjFIsjz2HHRncma4e282G9O/X0DhHQ3OKvyT/Ak+zZ9SiIdctxOuEa9hft7+HibXde+V8hlqtRrOz8/7Z874Wc+wYiHD2/HuRhLvbiQpxEmgWLj9PYycDcpxnO49il8YFzq8HU6If7Z3ht9tH1OIE9+oqhrKs6TDwuneozhGSOE94NHtBB7dTuDJYRUfbRUoxImnBEFg5jS/qDunznsxPFwx8HDFwJPDKp4e1ehVe5dFvYucRFjGAgm7KLzHcEL8vQe5fpD/8agCy6bwIfOZ9fV34i+WKy363TOhfpCjF+TPj+v4bP+MgpxMzcvX38loUfzTHoX3DJwgf7yZxZPDKnbKDdTbbHdqb8TZXUEsEhZef19U590uYhGa6qHwnpMT5ITchHpu4qbofBkihHFRev2dBI/Cm4Rep8v+tVbO8aUkOFE734TCmxCPxWIxqKpKdUnAorZpSeFNiMdUVaXX34nr6HcUGUsUaU97HrIcvUsACBsovAnxCM/zkGUl6McgF87PqTYhhNyAem7iNQpvQjygyHIkT7ILs/MuTZsQQsaQJAmSLAf9GCTiKLwJcRHHcVAU6rlZRKOChMxp+KbxebFyDRr13MRPFN6EuESWJTrmlWFRu5CBwpsQFwiCAEminpv4h8KbkDlRXRIO1HkTQi6h199JEOh3HCFzoNffSVAovEnoBVVX0Ovv4UKvxxNCqOcOITrPmxBCr7+TwFF4k7FEgfrcYfT6e/hwHAcuYn9KojcKCJkCz/N0nRnDOI6DIIoQBQE8L0CUJAg8H6lb4x0U3iT0/Jrfpdvf2bFIIX0dCm9CJkS3v7MhbiYQNxNBP0bgFufLFCFzEEWR6hLCFFp5E3KDWCwG0zSpLpkDx3HgeR4cz0MUREiyhFiM1o7zoPAmvgvbGROmadLr7xO6LqRZ66PPu120Ox20bRvtth2635MAhTchY6mqCkmSgn4M5qXSaSZDGugFdavVQqfTQbPVRLfTQafTCWVgD6LwJuQagiBA1/WgHyMUWDgO11lNdzsd2LaNlt1C2w7nqnoSFN6EjLCIY4FhqobOu13YbRttu33xV9uT1TTLb9FSeBMygq7rkb4Vh+f5izlpdntpwN/VtCiKUBQF6XQamqZhZWUFhmG4/jluie7vTuK5THYZZ2enqFtW0I/iKkVRIjMW6GwgOkHN8sssg6vpTqfd76m9CmrDMJBIJLC0tIRUKgXDMCCH6NgDCm8yM0mSkM0uo9FooFIpBxbibv7HzfM806utSamaBllRmAzqUavpTruNTqfjyeepqop4PI5EIoHl5WXIsox0Ou3JZ/mJwpvMTVEUKIqCRqOB05PjoB9nZlHquXmeZ6Kv9XM1LUkSZFmGqqowTRO5XA7pdDpUq+lpUHiTseJmfOIfqygKVm6tot1ue/hE3mHl9ffBcztYmOKYxKjV9Hm3C9u2Pfk8p5/OZDJQVbXfT0c1qEeh8CZjvbmxgUw6ja+2t3F4eDTRzwnjRl9Qr7+LonjlhRYWvoCM4+dqGohGP+2F8P1XRnxnmiYevvMO9vb2sb29DateD/qRXOXX6++iKEKSpFCdgmfbtm+raQD9ysOpPSRJikQ/7QUKbzKx27fXcfv2Ov7fV19he/vroB/HNX69/p7OZD3/jFn5vZqWJKm/V2KaJt544w1aTU+JwptM7bv37+PWygry+R3s7e9P/fNVTUOlXPbgyaY37evvYXqR5TqdizM9BlfTXtcepmliaWkJiqIgl8tRULuAwpvMxDRNPHjwNnK5HLa2tqaqUpLJFHTdQKVSRq1a9fApx+N5HvI1wR2WA5bGGT58yevVNPA6qOPxOHK5HHRdp6D2CIU3mcvKSg4rKzl8k89ja+v5xD+v12VmEI+bgYR4LBaDYRiwW63QhzQQzOFLiUSiX3vkcjnE4/FIzMiHRez8/Pw86Icg0WDbNra2ns9UpbRaLVQqZei6AUVRpvq5jUYDr44OR36fbhhIpzNXvl1VlP5UR9hC2u/VtCRJUFUVsiwjm81S7cEICm/iunK5jCdPnvo2lTJteDthxDq/Dl8aRP10eFB4E89MW6XMaprw5jgOhmEw9RZlUEeZOkFtmiaWl5epnw4Z6ryJZ97c2MDt9fWZqxS3xWIxqKoaaHD7PZLnoH46emjlTXxRLpfxf559gbIHI4KTrrwVRYYsT9enz8rvw5ccTiU0+KILraajicKb+MqLKmWS8HZef/di1R3UalqSJMTjceqnFxTVJsRXb25s4M2NDTx79oVvVYpbdUlQq2mg10+n02nouo5bt27Ra+OEwpsE48GDt7GxcdezKmXQLMEd5GpaVdVL/XQqlaLVNLmCahMSuHkPvBpXm6QzGayurl37c/0+ynQQ9dNkHrTyJoFzDrza2nqOb/J5135dQRCgaVr/74NaTQO9oDZNsz/1QUFN5kUrb8KUcrk89YFXo1besVgMS0tLkGUZvCD4tpoGXvfTzrVbzt8T4iYKb8KkaaqUUeFtGIbnb1E6tYdzRyL108RPFN6EaZOMFg6Ht6IoiMcnv75tEk5QZzIZqj0IEyi8CfNuqlIGw5vneSSTybnGAiVJQiKR6G8kJpNJCmrCHApvEhqlUgnPnn1xpUpxwjsWiyGRSEx1B6SqqkgkEtRPk9Ch8CahM1ylOOGt6/ql6ZJBg/20cxAT9dMkzCi8SSgNnh3eaDRwdnqCeDyOWCx2pZ9eWVmBrusU1CRSKLxJqBWLRfzHf/wBa2ur1E+ThULhTQghIRSe+58IIYT0UXgTQkgIUXgTQkgIUXgTQkgI/X9/9a0DUAXr9wAAAABJRU5ErkJggg==;" vertex="1" parent="1">
          <mxGeometry x="3516.15" y="622" width="41.7" height="29.76" as="geometry" />
        </mxCell>
        <mxCell id="z_aPiHpWdewL4F4yoZI_-72" value="&lt;font style=&quot;font-size: 12px;&quot;&gt;acr-APP-prod-001&lt;/font&gt;" style="text;html=1;align=center;verticalAlign=middle;resizable=0;points=[];autosize=1;strokeColor=none;fillColor=none;" vertex="1" parent="1">
          <mxGeometry x="3480" y="654.37" width="115" height="26" as="geometry" />
        </mxCell>
        <mxCell id="z_aPiHpWdewL4F4yoZI_-76" value="&lt;font style=&quot;font-size: 10px;&quot;&gt;&amp;nbsp;v 18.1.0 &lt;br&gt;(Backend)&lt;/font&gt;" style="text;html=1;align=center;verticalAlign=middle;resizable=0;points=[];autosize=1;strokeColor=none;fillColor=none;" vertex="1" parent="1">
          <mxGeometry x="3383.94" y="445.22999999999996" width="64" height="41" as="geometry" />
        </mxCell>
        <mxCell id="z_aPiHpWdewL4F4yoZI_-77" value="&lt;font style=&quot;font-size: 10px;&quot;&gt;Azure Database for&amp;nbsp;&lt;br&gt;MySQL&lt;br&gt;v 8.x&lt;br&gt;&lt;/font&gt;" style="text;html=1;align=center;verticalAlign=middle;resizable=0;points=[];autosize=1;strokeColor=none;fillColor=none;fontSize=11;" vertex="1" parent="1">
          <mxGeometry x="3515.3099999999995" y="451.1" width="107" height="52" as="geometry" />
        </mxCell>
        <mxCell id="z_aPiHpWdewL4F4yoZI_-78" value="&lt;span style=&quot;color: rgb(50, 49, 48); font-family: az_ea_font, &amp;quot;Segoe UI&amp;quot;, az_font, system-ui, -apple-system, BlinkMacSystemFont, Roboto, Oxygen, Ubuntu, Cantarell, &amp;quot;Open Sans&amp;quot;, &amp;quot;Helvetica Neue&amp;quot;, sans-serif; font-style: normal; font-variant-ligatures: normal; font-variant-caps: normal; letter-spacing: normal; orphans: 2; text-indent: 0px; text-transform: none; widows: 2; word-spacing: 0px; -webkit-text-stroke-width: 0px; background-color: rgb(255, 255, 255); text-decoration-thickness: initial; text-decoration-style: initial; text-decoration-color: initial; float: none; display: inline !important;&quot;&gt;&lt;font style=&quot;font-size: 8px;&quot;&gt;1 nÃºcleo virtual, 2 memoria GiB, 32GiB storage&lt;/font&gt;&lt;/span&gt;" style="text;whiteSpace=wrap;html=1;fontSize=10;align=center;fontStyle=1" vertex="1" parent="1">
          <mxGeometry x="3513.49" y="497.89" width="107.54" height="34" as="geometry" />
        </mxCell>
        <mxCell id="vk4rfRO3AWQpEGK3AYZt-5" value="&lt;span style=&quot;font-size: 12px;&quot;&gt;Android 9.0 a mÃ¡s&lt;/span&gt;" style="text;html=1;align=center;verticalAlign=middle;resizable=0;points=[];autosize=1;strokeColor=none;fillColor=none;fontSize=8;" vertex="1" parent="1">
          <mxGeometry x="2853" y="484.5" width="115" height="26" as="geometry" />
        </mxCell>
        <mxCell id="VYaFD3DukPecyQG8pvWK-5" value="&lt;font style=&quot;font-size: 8px;&quot;&gt;vnet-app-thecure-prod-001&lt;br&gt;10.200...35.0/24&lt;/font&gt;" style="text;html=1;align=center;verticalAlign=middle;resizable=0;points=[];autosize=1;strokeColor=none;fillColor=none;" vertex="1" parent="1">
          <mxGeometry x="3131.84" y="219.76" width="113" height="41" as="geometry" />
        </mxCell>
        <mxCell id="VYaFD3DukPecyQG8pvWK-4" value="" style="shape=image;verticalLabelPosition=bottom;labelBackgroundColor=default;verticalAlign=top;aspect=fixed;imageAspect=0;image=data:image/png,iVBORw0KGgoAAAANSUhEUgAAASYAAACrCAMAAAD8Q8FaAAAAqFBMVEX///85mcZ/ugAzl8V3tgAulcQlk8N7uAB1tQAplMP7/f7y+PvL4u7r9Pn3+/1OostbqM7Y6fLj7/bV5/FAncijzOK41+hTpMyNwNuButi21oKq0OSDu9h2tdW21ufK4e6Zxt+cyFf3++/Z6b7U57fL4qjH35/0+etnrdGkzWC92o+JvyHo8teXxkbq89aNwSzi78uv03Oy1Hioz2ft9eG314mYx0HH4KErmvHLAAALDElEQVR4nO2daVciPRCFbXpF3EAU9dUZ2RRB3FDn//+zt5sWBfomqeolSXO8H2dOTPqhUtkqlb29X5nRwfVkctE2U3f7YnJyfWqmbpYOTwLXdf3gZl9/3fs3gR9XHkwO9dfNU8fxnaX84yPddR8dr+p2Orrr5qkTOCu5J7orP3G/Kw+s5tT2nR8F53or/xOsVe4bco4UnbprDdVuTj1no3ZrHflBsIHJ8bV60sPmJqbgQGftdP3douQEWg2/HThbnP7qrJ6qDCXNfrSzhclOTucZSq7b0tmAlptpgO5BRK0/279l7Jou9Tbhxs80Ifijtwkq/Zel5DpajSn24ZkmxJz+09sGuQAlx9U+w+ts9zrLON0CW9JPKeGUBRXc6m8HFqJkZlV12LWXE6DkmFp72svpAlDSO/9eV8sBnC5MteZH19b0uFStLpgXXJtrT6pLyyjFnI4BJ81TuG1BSob3Du3jdNO0j1Kyi5n1T80bc+2ZAFvqGqcUc+oBPz4x1Jj9Sda4raAUN+0EcTJwiJE0BVAy3+NS7feyjfNPTBz2AMO2hlIs9CP2tHNCbtKSHvcl5BJ0H4q1rKck4KR3pxBMdW3qcanAQOx3NXI6BAsn22wpkdlpHVqG20gJc9LV0A60Jc07ukRBe9Ky5Oz49aGEF52+Bk5tsOFsLyW40aMhwOC0ZpTwtmHVAQan2b5uOSXMqVkpp+1giqUFW04Jcqo0ECMbJpBExdlOCR/9VBdgkA0TsL/HpYKcKgowOEe+sBaU8CFZNZxAMEUtelyqM8SpgkAMFCZQH0q4/eUHGMBgiq72mOYC0sEJ2WydbCkR5HRWZg3IA/q9elHC3rXMAAMYJlAzW0qExuryAgwwpTr5pZWq5AT2IvRvvpckyKmUg3Ows+W4vXpSwuutMg7OEaV69rhUf5tVcIK2VGNKeJejKCdwhlPjHpfqFNhTsUAMcMJce0qYk5//uhYKpoh7nJHAjlJ1Cr4rdyAGihLaAVtKhM49/HxfhsIEHNdE8EsF6sB+kmNdgcIETIS+VCR0cSPH+qsFDsB3iBK+uMHei0XBFGbCzSoTjBfhBWKgMIGd8UsrYU6Mg3NkkDvV41LByBr6zS3k3uLxctcoYU7ke4BtsIzbMb+0EhyomqRAjFOwNNw5v7QSurjhUgIM0IKHaUsv49eHfv/hdTpkN/tx9JYUfRs9sovejz4W/X5/MR0OGKVyckLbDBxKg7t55HlhKs9bcEgNF2H0VdSLGq8vjKKD6ey7qBc939FJwchtVSBGQUqDqxhRY02h1xgRy45mW0WjOdWkBm+b1YZeOCUWxUtXBSfol+h7DOOG19hW6M3fCUXf55uQ0qJXpGqHoFpvRjbGI3QhQcbpoJhf6mdbu/zaUN3iuyyk5cd+3qurfYtgrR7ZoODtm6aQE9pOd3zqvt59A35pomisKLuAX5p8bENpinP848S1LogtxxcSRAFQ2C+VQCm2CrmDEpjhklOosCdJWe+V2HYBJ2hPAu9NrUhGKW7xk6ToQvylMaeZtNpXWVl6v4M3KBGngpT6UkoxQ3HRqexL46IPkmpH8rKR7NfZ1AQE2mc5FfNLe2ORc/n+YYWD1ov8S+NvFc+9BoqyClPcELqQsM2pmF/aGyi+NOEk8jEzuR1Kv/VNVda7o34ChVNBSvF4rsQUvuGiY3VR4QBwry4r6ewZ3QD/tD4vKEppT93aWHgBoTQmiTkpvFoixRi7KXTB5ceeClMaEn5VQYNJRSPBquWZgHjOwLR3Kel3Hbhz0mP8daWLWDYYzvYWlKKCgf2dglhgxAKBxGvuVyZBdGrJy5lDaW0Du4kZpWDYh9US3FqMmLUls98FFrOcFR2g9Ev+LeePq2YDXx8LxjqaQQgc8QfJElULpU2dg63bZbe7RsbEyuz5RMOEfleSa4qLwnoVU9pU4QcL0xEKwUnCDo8BJcflnKcrJ4hiTIpZ9EoRnHTNSZhomzHfQrvjPcG/8wLjqZjAbJrkXkSLjk8SJvr6d6kTRCPBhKypyTklpnY6sO1E7HQR3E7RZk0Jphvomzi38gb5fRPRhUdwVH+twDcdouDuJOQQxQAzE8WSPhWOdANaUTzSESbh7JHuDMThpDfKUBwT7zIs6WfF30rrOHjeRJv8s+ZNhyhO5Tj9L0DJcX2GdyK1F699/5E+Fc/C70m/DoeSNNsSXq1wYn0ozUUePO51lE/FHpxkiniJJBJIIrYWywMn4hxOhI0U0c9KWA+Gz4JqCdOJiHMoqspvBt04h5N6O0S0QabagGzgCVeq/ISBCFng0JU8Dqehek4gKqq0xPBTWK3Ss0k2iLdFypWHLoNx7qZITziS9oq3x1QeBju1VAorZuw2ETMKgh1OFif5FpknOR4ZyL9VekL+JP91hBvwGZHzLk7gtlM5nOQuQnoSqjCIO1lvp+/w0rNToggWzq2CgZhTOJP/qhJOEseU6kpsTxH5WIWTnbKFMHFuX4hO81WUYk7PgqKe2rngSIuEEj3WgpXDEwbwciJ4pzCuJJId2650FYGiYUTZBRnDWsOQPMjBCCdJhDjKzsTi9DjPfK3XoK09X54zX+vNaF/6nq01jPpk7w0pSRP1wWkmK/JytPG1odeYkk82xrOtovS1/XCrVu+TPvmGPU6RzhBlr2DeyXu8akSe5yUxkFGfc5gYW9TbsmisyHvgFX36WNXqRc9Txq4A35YSwWkm9+7i4GU8/fg3pIeD/Oh+OJ5Ox7mKvr+M7j7uRi/k3pYIU1KvPsDBJ59TbYQzMFPWaOiuOO+svD4qkqcaLlt2klOxbN4oo+YucsLZvOm7RwI/vmOcjtA9DNb9TMzJ2OMSlQjdVuHm8ITPX+0UJ3Tlm5/7RTDP3BlO6CZdntwvcNvX6OM3ZQreD8uVr2GXOcG3GHLm60C5ZXeDE+px+W/pwpB6p2n4EbPiKpeSIMTX+GNvRVU2JdE+Xb05YUrF/mYbxLHUmxPKPVB8noMy+NjwGGVeQVsqYTaIzxFseNw0jxClctYWMENGTe0JZY8pawUm4FRDe6qSkiAxWA05od+7zNkyPjevG6eqKQlSO9aME+pxZa+8BJxuy62lSumgtAdv6teJE3zavopVPLiBXh9OcIyrZi0BD6bqwUkjJcFBZ7lvS1QjSKm6+TE8wLOfk2ZKggMX2zmheygVz2Uwp9LfCCpTBigJDqZs5oQSwmqYF8MDF3s5GaKEnwiylhPaLdM0h4EBmnZyQmlztc304AFeFW/iFRXscbfaqocHU/Zxgj1O5+zlFPY7yzih0w7Nczz0BEdFb3bmFfRLumfC6AkOqzhBSvrHGXgwZQ+nDsqcY2I0hq9CVPf2Mk+W2FIieDBlBydIydQIA4OpbOAExzhz/gAeTJnnBP2SSa951LPQniyzpUQwJbk41bYOoamK+RGYnkJaj9DzJ6btOxFMjcxJa1Sq2tkE+q55W0oEU/4a4gR7nAW2lAimsjXCCVIy6inXBQ6mjHBqE1PImxK4MeXSnlIqU+3sNpjbtKTHpUIHU/QnzMoRWKFYZUuJwMGU29X6vNZ+dolpcMQVCRxMNbVugp1lB1zfOkroYGqZpFWbMvs6ro2U0MFUwHqws5gy6U9dVpZqjcrcmAo0OvHMZED/SEvVNieT1uRaS2n7AM91dNa96Zt8iyltHeDpDTi8Xd+q0Nnd86i9duDCSmFfWK01M9Y9s+WrvTJ+7XO778dRWU89m1JrEviu7wdd/Wu6buDHVQcT9kP0RtQ+u768NbKYOri9vj6z2nn/6le/oul/7lm1wer/zq8AAAAASUVORK5CYII=;" vertex="1" parent="1">
          <mxGeometry x="3169.2900000000004" y="207.0000000000001" width="38.1" height="22.16" as="geometry" />
        </mxCell>
        <mxCell id="VYaFD3DukPecyQG8pvWK-11" value="" style="shape=image;verticalLabelPosition=bottom;labelBackgroundColor=default;verticalAlign=top;aspect=fixed;imageAspect=0;image=data:image/png,iVBORw0KGgoAAAANSUhEUgAAAlgAAAE7CAYAAAAB7v+1AAAAAXNSR0IArs4c6QAAAARnQU1BAACxjwv8YQUAAAAJcEhZcwAADsMAAA7DAcdvqGQAAC43SURBVHhe7Z0JeFTV2ccVWdz33SpqW3EpoliLCxpXglqrooIbRQWhH0pA1gQXVoNBBINWgyixVqISFVFrtGCMlqAGIYJhURHpQiutIP3qp9TtfOcd7uBk5p3MZDLLmbm/3/P8HmzuLPecc5/3/nvunXO3AwAAAAAAAAAAAAAAAAAAAAAAAAAAAAAAAAAAAAAAAAAAAAAAAADIJa4r39jr1499XtH7sc9X2n8NImIm3FqDNj13XfnnfX5d/kk7r0QBAGQXfcr/1cEWtEVaoUNEzKQStvqUf9bFK1cAANlB7/JNo2wB+1IrbIiIDlnMbBYAZAWBgqUXMkREF63wyhcAgJvIlLtSvBARnVbuFfXKGACAW8g0OzeyI2I2amvX3/uUbzjAK2cAAO7Qu/zzwVrhQkTMDjdN9coZAIA78ItBRMxmZRbLK2cAAG4glwe1goWImE32Kf+8vVfWAAAyjxQlrVghImaTtpbleWUNACDz8OtBRMwFCVgA4BRSlLRihYiYTRKwAMApCFiImAsSsADAKQhYiJgLErAAwCkIWIiYCxKwAMApCFiImAsSsADAKQhYiJgLErAAwCkIWIiYCxKwAMApCFiImAsSsADAKQhYmEx7PbDW5N/2qjl3+FzTdeBjptMVYxvZ+epJgW3ipZOXmh5Tlpvesz5TPwuxORKwAMApCFjYEq+d+am5eOIic1r/h83BJ11m7CHVbPc95pxAGLt82kr1OxDjkYAFAE5BwMJElGAls1C7HnK8GpoS9SfnDDDnF75krpmxXv1exGgSsADAKQhY2Bzlcp5cApRZJ3v4pEyZDZNLiNo+IGoSsADAKQhYGK9yCa/96b3VQJQq8wZVcI8WxiUBCwCcgoCF8XjBna8l/XJgvB59wZDAzfPafiEGJWABgFMQsDCWMotkD5WMKpcMr3roz+r+IYoELABwCgIWRlMuzcnSCvYwcUKZyeJyIUaTgAUATkHAwmjK0gv2EHFKWUdL21dEAhYAOAUBCzXll4L28HBSuWSp7TP6WwIWADgFAQvDldXVM3VDe7xeOf1Ddd/RvxKwAMApCFgYqizwmeiK7On05N5T1f1H/0rAAgCnIGBhqC78YjBemcXCUAlYAOAU19qi1NsWJ8SrZ6w3uzh+aTDUDvKrQqUd6E+lltnjAgDADQhYGPTMLJq9CnrJ5KVqW9B/ErAAwCkIWChm2+xV0FP7P6y2B/0nAQsAnIKAheI5w+eqAcZ15aHT1836TG0T+ksCFgA4BQELxeMuKVIDTDZ42ZTlapvQXxKwAMApCFh4zcxP1eCSLXYd+JjaLvSXBCwAcAoCFl48qU4NLtmirNultQv9JQELAJxCitJ1tjihfz0jC389GO6VD6xV24b+kYAFAE4RCFjltkChbz3+8rFqaMkmLy6uU9uG/pGABQBOIUXp2vJNtjihXz2q+xA1tGST5456UW0b+kkCFgA4BAELDzv9OjW0pMq+ffuayspKM3/+fDN79myTn5+vvq45nnzDA2rb0E8SsADAIaQoXWOLE/rXdAWsgoICs2bNGhPON998Y2pra9X3xKvMwmltQ/9IwAIApyBgoT0MmrRXr16msLBQ3RavMlMVi/r6evW98bjzIcerbUP/SMACAKfoZYvS1bM2GfSv9jBQLS8vN5s3b/bijzFbtmwxVVVV6mubUj4nXubNm6d+RjxqbUP/KLXMHgcAAG4gRekqW5zQv9rDIMKysjIv8kRSVxf/ulmdO3c2X3zxhffO2MhrZcZM+6xYXjnjH2r70B8SsADAKQhYaA+DRsYTiiSAhb9Ps6amxntH/CQ6i9Xjt+vU9qE/JGABgFP0Kv9XXq9ZGw36V3sYNDKeS3obNmyIeF+4MhMlN7CHs27dukCIksuNGzdu9P76A6tXr1Y/L5aXTl+jtg99oq1l9jgAAHCDXjNtwHrUFif0rfYwaKQEnHgYN25cxHtDlUuJ4cjSDKGvkdkyCVyhSCgLfU28/nLyMrV96BNtLbPHAQCAG0hR6mmLE/pXexg0UptVWr9+fcRlw1gzTTLLFUq0e7fkF4rhJLI21kU2YGntQ39IwAIApyBgoT0MGhlO8H4rmW0KXcdKAlf4e4PKa0ORWammbl6XABeKLEaqva4pL3vgE7V96A8JWADgFJfbonSlLU7oX+1h0MhQGhoaGm2T4BQ6MxW6LdSSkhLvFVuJtcaVrOweSiIB61IbsLT2oT+UWmaPAwAANwgErEdsgULfag+DRoai/aJP/hYkWhAKfY0gC41qrwsavhBpIgGrx0N/V9uH/pCABQBOIUXpikc+M+hfj+96WaOgEnoPlnYju4SfIDJTFb49qGyToCWzV7ECUzICltY29I8ELABwCilKl0txQt96yGnXNgoqofdZyfMDQ7cFlfuvtNmtRA29RCgrxmuviaXWNvSRBCwAcAkCFoYHLHnwcpBoM1SJ/MqvKUO/M5F1sKQNWtvQRxKwAMAlpCj1mPmZQf969GVjGoWV0tJSL+qYwKKjodtSZeiN8zKbpb2mKQ8+9Vq1begfCVgA4BQELAwPWPJLweAK7LF+/Rc0/5wTzbxZhebPi0q2+WrFHeprNYNrbMn3JjI7dmS3wWrb0D8SsADAKS6xRekyW5zQv3a8ZkpEYAlesou1fpW48JkR5rv3Lzdm2d4Ryt9XvV4SCGDae4NKqJMb3RO9r6uDDYla29A/Si2zxwIAgBsQsPDEGyMf3CyhShb/bOpxOD0vPNH8570harAKV4LWn567U/2cZEjAQgIWADiFFKVLZ/7LoH/VAlYsH51yo/n2/R5qmGrKr1cONkteLlY/syV2uOxOtW3oHwlYAOAUgYD1sC1Q6FubG7A+fnO8Gp6a47cr+pjl8yeZG686X/2O5trhUhuwlLahfyRgAYBTSFG6RIoT+tZfDHpKDS3hPvnQMLOlYagamBL1+2U/N5/VTzBlxVep3xmvh3crUNuGPpKABQAuQcDCU4Y8o4aWoPdPutX87/uT1ICUTL96f4ipmVOo7kMsDzr1WrVt6CMJWADgEpc89K+8X834l0H/2mWwHrD69ulpNq+cYb5f/gs1EKVKmSUrHtn48T2x3PGgjmrb0D9KLbPHAgCAG1xki9LFtjihf/2FErB69uhmvvtwjBqAku3X7+Wbb97r0uhvcunwxitPiNivpux+38dq+9AfSi2zxwEAgBtsDVj/tAUK/eovBkeunL7gqR/C1ffLTzYfVReYD+b/TyD4hAahlvjf+vPMH2eeazofu33AL5d0a7R9xYKJEfvVlGdPqFPbh/6QgAUATiFF6Zdl/zToX08uiAxYM++/a1vQ+d/lP6z0Xl7Sy3z3fuMg1FxDg1Xod35R37/R6xa+OLXR9lieOvwPavvQHxKwAMApCFioBazDftLJfPvB7YGg831Dd3Pn8D7btt07+hLz3+XXNwpD8fjde8ebRRXdTf4pjYPVtHsnmc0fzG702s9Xzmr0mnjscMVEtX3oDwlYAOAUUpQukuKEvrXjDQ+pgaV47Ajz3QcjA4Hnm1VDzV2Fvbdtk9mn1QtuNd8t69woGGl+915Hs+yFy03Pbq0afb4Eq00fPGu+X3H1ttd+33ChWVrd/HAltjuoo7nggb+qbUQfSMACAJcgYOERF45UA4soIevbT2ZuDUorbzQzphY12i6h6Z1nbjBfLu25LSQF/b8llwVmrMKDVd++fc2nKyoDYSr4Wvml4r9XPxL4vtDXNtfTR1erbUQfSMACAJeQonThQ/806F93P+osNawElecS/nPVi4EQJP617gGTn58f8Tq59FdS0CZg+P1Vge32PcsXPm2++7CwURD78qOHzBMz7454fSIedflEtY2Y+xKwAMApLnroHzZgbbAFCv1ot/s+UYOKZtWzM7ZdMpT7s+RSnsxGaa8NVV6z5t1K893HdzcKVl9/WGJefrpUfU9LPLekQW0r5rZSy+z4AwC4Qb4tShfY4oT+9Mzx76ghJZqDBt5o/vNR+baQ9P2qm8zGlRWmvma2efCBaYHZrnHjxpnK2WWBv8nN6/Ka0GAl91ytXlRuOnfurH6HKNuqqqpMSUmJur0pj75qstpWzG2lltnxBwBwg0DAetAWKPSlnQdWqCEllsve+F2je6i2hScbpppa+X3Lxw+bqXffoX5m0LKyMrN582Yj1NbWqq+JZdc7a9X2Yu5KwAIAp5Ci1N0WJ/Sn+3e5Rg0o5eXlgRkkbVvQ2eWl5tuPp6pBKlyZtWqorWhy1kpmq9atWxcIVkEkaGmvjeWh5w1S24u5KwELAJxCilK+FCf0nXnFy9RwIs6ePTsQcDZs2BC45Ke9RpRLgp9/8HTUWSsJVrK9qVmrwsLCiGAVSjz3eWmeNGSu2m7MUQlYAOASBCz/ekITlweDASuIXKpravZJZrPkXiyZ0fp27W8D917Jje1j7oi+BIQoM2XffPON9y068+bNU98bj6ffWau2HXNQAhYAuET+/f/I6/bbDQb9535RLg+K4QFLkNksmbHSXp+IEtriYc2aNer747HtQT8zeZMa1PZjbim1zI45AIAbnGuL0vm//dSgvzzltho1kATVApYg90Q1dckwHuUm9o0bN3qfGBuZ4Wpq9iyWEiTPmbpW7QfMHaWW2fEGAHADApb/PO/+9WavTr9Sw0jQyspKL97o1NfXq4uNNmVpaWmT91o1hVxK1D4zXg85d5A5t/TPan9gbkjAAgCnkKJ0ni1O6B87D31RDSGhxnP5TmaW6urqTEFBgfoZomyrqanZtuxCorTkMmHQI3tMsCfh9WqfYPZLwAIApwgErAdsgUJfeO702LNX4urVq71oEx8SoGRWa/78+QFlpmrLli3e1uSQjPu/Olxzn9ovmP0SsADAKaQonSvFCX3hCQVz1eARbnPukUoXEty0fW2ux944U+0bzHIJWADgElKUzrHFCXPfriWrTNsDf6aGjnBjLZ2QCRJddFTz+JvnqH2E2SsBCwCcYmvA+octUJjLnj39b+bgc29Rw0a4srCnqyTybMJodh5epfYVZqcELABwijxblM6+356AMac9tt9jasjQlGUUXEXu89L2OVFPGbdY7S/MPqWW2TEFAHADKUpn2eKEuevJt/9JDRfRlBDjKnLpMpmLne5x/K/MmdPWqf2G2SUBCwCcgoCV23ad/KHZ+ad5ariI5hdffOHFGTeRJSS0/U7UI68sUfsOs0sCFgA4hRQlqxQnzDHPLP2bOaT7cDVURFNWaXcdWf6hJSu7a54wrErtQ8wqCVgA4A5SlPKm/91g7vmzgU+pYaIpZSmEbKAlD4DWbHPgz8xpk1ao/YhZIgELAFxCitKZtjhhbnny2Do1SMTSxfWvNOQyZrJnsfbr2teccd9f1f5E9yVgAYBTELByz65TPzG7H3+xGiKaUpZAyCbk145aO1ri0f3K1T5F9yVgAYBTnG6L0hm2OGHuePiVia0V1dzH42SaDRs2qO1oiXKp8JRJK9R+RbeVWmbHEADADQhYuWXHIS+owSGWhYWFXmzJLlIxiyUBVetbdFsCFgA4xenT/prXtXS9wey3S3GDaXPgcWpoiKXLa181RSpmscSTxy1R+xjdVWqZHTsAADeQonS6FCfMak+b9hez7+k3qmEhlrJwp4vPHoyXVMxi7X/2zWo/o8MSsADAJQhYueFxgxNftiBbZ6+CrF+/Xm1XSz1h9JtqX6OjErAAwCWkKJ1mixNmr13u+ci0TvDSYLbeexWOtENrX9D8/Hz17025W8eLzanT/qL2ObonAQsAnCIQsO77m8Hs9Sd9ZqgBIR7lHqZcQH4BqbUvqKyZVVpaqm5ryuMKnlf7HN2TgAUATtHFFqVTbXHC7PSkCe+pwaD1AbFntGbPnu3Fk9wg1iyWXArV/t6U+519s9rv6J5Sy+yYAQC4AQEruz2w2zA1GNwwQP97ULlk5vpDnZtLrFmsurq6hG6I7zz2XbXv0S0JWADgFFKUTrHFCbPP44veUAPB+RdebsrLy9VtQWtra71Ykls0NYtVWVmZ0LIO7Xvdq/Y/uiUBCwCcIhCwptkChVlll3v/bHbt+Es1EEh4auqmbgkh2bwsQ1M0NYsVvKFfgpa2PZpyufXkkg/VcUB3JGABgFNIUbJKccIs8pghL6lhQEJErFmabHskTnOJNoslN7pLsJRLo9r2pjx60Fx1HNApCVgA4A5SlMKKFGaB+541UA0CEp7mz5+vbhNlUdFcR2bwtLaLGzduDLxGHmytbY/mHj/vpY4DOiUBCwDcQYrSL2xxwuyx420L1RDQt2/fmOGhpqYm8JpcRmapJEhq7Q/O3skN79r2ppR+18YD3ZCABQBOcZItSidP/avB7PGQHpPUACAzV1u2bFG3iXKJLNd+ORiNaLNYwYCZyGXCI294VB0PdEOpZXacAADcgICVXZ5YvFI9+YubN29u8v4rWaLAL0jQlEAZ3gdyg3uQ5l4m3P3nvdQxQTckYAGAU0hR+rktTpgdHnHDo+rJX8KCsG7dOnW7KNv8xLx5kc9nDA2ZiVwmPMEGXG1cMPMSsADAKQhY2eNJU9aZdj8+Uz3xBx/YHG218oKCgsB2PyEzeuH9MG7cOG9rYpcJjxo0Vx0bzLwELABwCilKJ039i0H3PXpE9F8HBte1knuMtO25urBoLMJXbg/+ECCIBM/Q7bE8uEexOjbogAQsAHCJk+6xAeteW5zQeX905RT1pB9cQFOoqqpSXyP3JPmR8Eumcl9WKM19dI4sOtr5nk/U8cEMa2uZHSMAADeQotTZFid02xPtSb1tlMuDoQ9tlv8O3x4awPyIzFqF9kco0QJpUx5321vqGGFmJWABgFMQsLJDOanb4VINvfxXWloasV1u9vYz4SEqlIaGhkbb4vHH/zNHHSPMrAQsAHCKTrYonWiLE7rtob0fUk/24vr16724oF/yyvVH48RCVm8P7Y9QEnn488FXTlHHCDOr1DI7PgAAbiBF6YQpfzHotruepK9MLoY+uFlbmsCv91+FEryZPfweLOm78P6K5V55A9UxwsxKwAIAp+h0zyc2YP3ZFih01ePGLFFP9EFDCf8Vod/vvwoS7JfwXxEK4fdoxXKHA45Txwkzq9QyOz4AAG4gRamTFCd01h8XvKCe6IOGEn5Pkd/vvwoSvBQYXJA1lOYGLPG4ccvUscIMSsACAJcgYLnvoX0eUU/yojzUOJTwZQn8fv9VKHJ5sLy83PtfP5BIwDpqZLU6VphBCVgA4BJSlI6/588G3XXf7oXqSV4Mv+QVvno591/9gFwuDT7sOZTmLjYqHjHwOXWsMHMSsADAKQhY7tv2yDPUk7wYftO2ELodfkAe9CwBNJzmPvRZPOTaB9WxwsxJwAIApzjOFqWOtjihmx531yr1BB+qPFMvlOCMjHZDt5+J9rDrRALWPt0L1fHCzCm1zI4NAIAbbA1Y62yBQhf9yYjX1BN8qOHBYf78rc8sDH2wMUQn8YCljxlmRgIWADiFFKWfTV5n0E2PHPwH9QQfan19vRcVtiILj8rfZdFRiI30l4TR8H5tyn3yC9XxwsxJwAIApyBguW08ASv0WYRB5PKg3HME8SNLXMivMrU+Dnfnzj3V8cLMScACAKeQonScFCd00kP7PaGe4EPNz89vtJq7IOFKLhX6nTVr1gT6QZQZPfkVYbR7sQT51aX82lDr51AlYGnjhRmUgAUALiFF6VhbnNBNfxRHwBIlSIQiIaKurs77X/5DglKsy34y8ycLkIYTT8iSgKWNF2ZOAhYAOAUBy20PuvZB9QQfbvj9VjKj1dRMTS4jbY9nFiqo9F140JKQNWjICPX1Yqv9j1XHCzMnAQsAnKLDpE/yjilZZ9BND+h1n3qC1/RroAqntrZW7Z+mlPXEwhchDT5eJ5raeGHmlFpmxwUAwA22BqxPbIFCFz34+nL15K4p61+F34vlR5ozexVuaWlpo9Xvbxw6RX1d6yPPUMcLMycBCwCcQorS0bY4oZse0v8p9QQfzaqqKi8a+BMJR1q/NEcJaMGgunjFPwOXA8Nfs1Pnnup4YeYkYAGAUxCw3PawgtjLNITrx18PSiCS9cCau55VNGUmS/jqv9+afS6ZGLF9z/xR6nhh5iRgAYBTSFHqcLctTuik7YfGXsld008hS+6VknuotH5oicHZwFsmvRixba+L7lTHCzMoAQsAXIKA5bZHFr0dcXKPV5mFCX9OYa4hD2+WdcC09rdUCW3Sf8++9lHEtv163qeOF2ZQAhYAuIQUpaNscUI3/WnxGvUeoHiV8BH+KJ1cIpHnCDbHefPmmdp3P4gYgwOvL1fHCzMnAQsAnGJrwFprCxS66h7dRjU6uSeirPUU+uu4XGDjxo1qW9PhwTc9qY4VZk4CFgA4xY9tUfrppLUG3fXAGx5XT/LNVZ6zF77iezYj90iFtzH/lO3N6qqLI/6ebA8eUKmOFWZOqWV2bAAA3ECK0k9scUJ3PfTWBepJPlHlETG5MJul/WLwzYrrjFm2txnZ/9yIbcm09RFdzeG31anjhZmRgAUATkHAcls5ibc99kL1JD/0N5eZfy+faL5beaP5fvnJZtOyYjNr6iD1teHmwmyWdnP7v5cODASsxc8PidiWbHfp+ht1zDAzErAAwCmkKP04UJzQNQ8rfCswU2KHKcJ+199o/r24VyBMhCpB69WKO9T3aFZWVnpxJbuQXw9q7flu2YmBfvjvsl+r2+O187Hbm5KCNmbs/7RWtwf90a0L1LHDTEjAAgCHCASsYluc0CkPHVZjWu2n/3qw37WXms3v9IgIV0GbG7JkOYdse8SOPHcxvB2DruvUqB9WVCUWsuQ+rs8WXrDtc76tP8pUPdhRfe3u549Sxw8zIAELAFxCitKRtjihGx4+tsHsc9UD6slcjBWugn7f0N3cVdhb/QxNeTxMNq2ZpQWssuKrIvrhpbJLI17XlLPvame2LM2L+Byx9skeEa+XEHzE+NXqWGJ6JWABgFP8eNJHNmB9bAsUZtIjxq8y+9/weNRZKzHecBV0y8rbm7XCed++fQOromcDDQ0NEfv/TNmAiD6QS4YLf58XmJUKf31QuRwowWrTW+dFvD/Ur5ceZ3p2axXx/oMLqtQxxfQqtcyOBwCAG7S3RekIW5wwMx4+8UNzQP9K0+YY/Ub2oM0NV0HX1t6rfl405cbxbLj5XRZPDd/3N54arPaB+M17p5rFc7qaBTN2MrPGtg0EqupHf2rW11xst3VR36M5r+ymiO/d64qp6thiepVaZscDAMANCFiZ86CCqpjBSiy6uWdC4UqU+7Gac6kwaF1dnRdl3ET2L3yfFz4zQu2DZLrq1YER37vDEV3V8cX0SsACAKdoP+GjvMPv+thg+mw/4UOz5xVTI07U4eafcYype+4W9UTfHP+vIf4b3kMNPuzYReRh1uH7W//KeLX9yfSrJV0DlxTDv/uQ4W+qY43pU2qZHQsAADeQotReihOmzd0uiB145FLUV0tOV0/yiVjzzFj1e2JZXl7u5C8MtYC1+rUite3JtmxCr4jv3vf6x9WxxjRKwAIAlyBgpVc5Edtuj+rkMcPMZ4si17dqqV+vHKx+XzxKmHENWY0+fD8/fP0Ote3JdtUr/SO+u/UxF5rDJnyojjmmSQIWALiEFKXD7lpjMD22PuaCiJOzOHhgf7OupuWXA5sy0Vks+SWia4/W0QLWX94qVtudbL9e2tHkn3F0xPfve9McdcwxPRKwAMApAgFroi1QmHIPGvZGxElZnHz7b9QTebJtySyW/GrPJcrKyiL28V+LR6ntToXzyvpFfP/2+x1jDry1Wh17TL0ELABwioNtUTrUFidMvXv3+V3ESTn/7NPMf+p+WDU81SY6i+XaZcKSkpKIffxyWWpnAEP9asmppm+PDhH7ICHr4NHvquOPqVVqmR0DAAA3IGClTy1gDe6f/PutmnJLwy0R+xCPrgWsgoKCiH38+v2r1Tanyr9VXxaxD+KOpw8wh47/QD0GMHUSsADAKaQo/cgWJ0y9eykBK12XB0Nd8NSdEfsRS1k53SW0Feq1tqbaBeU9I/ZD3POaMvUYwNRJwAIAp5CidMiENQZT7943VESciPtdc6l64k6l/667wpx31okR+xJNeYSOS0s1bN68OXIfL2mltjUdlgw7K2J/xIPHrFSPA0yNBCwAcIqtAesjW6Aw1e5X8Kp6ItZO2qm29tkidV80XXt0zurVqyP28Yl7r1TbmQ43v/1LdfHR/Ye9oR4HmBoJWADgFFKUrFKcMMUeMOrtiJOwmM6b3EO9c2gfdX9CnTdvnhdr3EFboqGhKvpzCNPhrCk3R+zT3v2eVo8DTJkELABwBylKYUUKU+RBY1ZEnITFda+n/z4s8dOF0QPWuHHjzPr1671I4xa9ekWupP7vpQPVNqbLmjm3R+zTbpffqx4HmDIJWADgDvvbonTQeHvyx7TYqn3XiBPx0peGqiftdFj3/PCI/ZEbyF0NV7Jf4fubf8r25rtlJ6rtS5d1z4+K2K/drpyuHgOYGqWW2X4HAHADKUoH2uKE6bF1pysiTsSZDFjivJmRIUtubP/iiy+8WOMO2jMIny69XG1XOtX6cI/rZ6vHAKZGAhYAOAUBK73qAWuEetJOp9MnRN5DJJcJXXvQc2FhYcR+fvJGgdqmdPmfuotMr0u7RezXXr+Zpx4DmBoJWADgFFKUDrDFCdPjDkdHPotQ7oXSTtzp9KslZ5qigmsj9q2ystKLNplHW55B/Pq9zPxIIOisaSMi9mn7fY8x+92+XD0GMDUSsADAKaQo7T/+Q4Opd9/CuogTcecTjlFP2pnws9qrTN7px0fsoyyL4AJ1dZH9N23kz9S2pEN56PPs6bdG7JO4c48p6jGAKZSABQAusf8YG7DG2eKEKXf365+IOBGXjs/sr9/CrX9paMQ+ymU5FygtLY3Yt7WvZ6b/1r0+wAy+SV/FXdxnxFvqMYAp1NYy2/cAAG6wty1K+9nihKm39an9I07ES1/M7A3umvMeifxFXKZnseReMO3xOOm+PPj+K0Wm8JbeEfsR6q69H1PHH1Or1DLb/wAAbkDASo97D/tTxIlYLg/KZSbtRJ5J/1PXPeJSYSZnsTZs2GDKysoa7Y84dmD6+m7dGyNNUclcNSSHutNlU9Txx9RLwAIAp5CitK8tTphad7piesTJePJt/dWTuQu+8EjksgPpnsVat26dKSkpidiPoG8/k/rLg5/WDjCT759r2p4T2R/hyhhrY4/pkYAFAE4RCFhjbYHClNruwnERJ+SapzK/PEM05Yb38P2VFdTl0TmpXIRUfilYU1NjCgoKIr4/3M/qUvt4nAXPPmJ2vHiS+t2hSvjaa/hb6rhj+iRgAYBT7D1mVd4+Yz8wmFpbn3pTxIl51auD1BO7K5ZNGhSxz0ElbMkSDg0NDYFQlChyb5U8TFoWEJV1t7Tviua3y89W97ulyrpW46c+Z1p16K5+b9A2NljtfnOVOt6YfqWW2XEBAHADKUp7S3HClKoFrOdnDldP8K4oATB8n6MpgUsu51VVVQXCksxCySW+UOvr6wPb5DXy2uYGqlDvHHSOus8t9f0/TjLdf/Ow+p1B211cbPYcvkgdZ8ygBCwAcAkCVnpsq1wilJ/5ayd5V5SlCML32RXLS3qp+9wSl75SYtp2G61+nyjb9ix8Vx1fdEACFgC4xO62KO015gODqXXnX/9ePWnPLr1VPdm74LpqdwPWvFmF6j4n6oJnZ5rWp0TOMgbc55jA+Gnjiu4otcyOFwCAGxCw0uOeRe/pJ2+rhCwJM9qJP5O+//IQdX9dMJkBq/L3j5tWHS9Xv2eHk3qbPUa8o44puiUBCwCcQorSnrY4Yerd8eqZ6kk81MJbrjMlo/tHOGvy9WbBE8PNqqp+5m81N6hBIdlK8NP20QWnjE7O5dWqpx+OGq7anD/a7HHb++pYonsSsADAKbYGrNW2QGE6bHPBWPVknog9u7Uys6YMNEtfLDBfLemqBohElQVQe116vvq9Lth6v2MCD6jW9j1e61661+xw0nXq57eVG9nvWKGOIbopAQsAnEKK0h53rjaYJm9fYXaIdq9PCx037BpT+8ww8/nbl6qBojlWlcdeWDNeWx3V3bQ+e1jS2730pcQvE66pLjInXazP0LXtcZ8+dui0BCwAcAoCVvrdbeRi0/r86L9WS4azS4ckHLQ+XdjbdD7haPVzt7nP0YHQJGFkx2tnmV0LqgPuXlivtllzt6G1296384AXA58jn7n9Yafr3xlmvwGF5uulx6ttaMpPa/ub7teNVz+z7SX3qPuK7kvAAgCnkKK0uxQnTLsSKiRQ2GFImc0NWuuq+5v8s05VP6udDUC72DC02+jlanuS6a42hO48sCrwnRJGtz9KX/Rz9oxStR3RDMxc9Zyoflbr7mPVfcEskYAFAC5BwMq8uxXWB4JL0F2H1jbaLmFD/i5hQ2ZYErnUFitofbXkjMBN9NFmruR7Q/cp3Ur7tf2S2a5ZMx6Nayar9oXpUQOthLjdb1+hfjdmiQQsAHCJnWxR2s0WJ8wud7WhbMeb5prWvywOXK6zQxmXZcW3bP014quDArNV8t+VDw5t8pJgq5OuM7vZ8KHtRzqVGSZt/6T9/Qp/Z5a+MjkiaMmN8PL3fiMfjToLJuHKhfZhy5RaZscTAMANdrptVd6ud9gTNmavt60wO8rlxmgBpAXKEgY7D3tb/940u8uo+ibDpMxmtbnyt6bf8Blm8tQnTa9hT5g2Pe6LGqzEHc4bHeg/7fswu5RaZscUAMANtgasVbZAYS64y6ilpt2Nc0yrzvryA81xh7OGmV2Klqnfkyl3uvnVZs3YNWXri+6y4apB/R7MPglYAOAUUpR2scUJc88dB79hWssMzmGnqQEjqjbAtLlqhvqZLrjTrQub36ZQbfva2hCqfTZmrwQsAHAKAlbuu/NtDabdgBcCMzZNBROZ9ZLgsXPRMvVzXHLnEYsDM2xaO5qyVddbAsFT+0zMbglYAOAUUpR2vt2esNA37njLawHbXP3otv/WXpcN7jhkodkhf4wapkKV12RzOzG2BCwAcAoCFuaCOxUuCwSotv1fCARHsd1vXiZU+UgCFgA4RVtblHaS4oSImMVKLfPKGgBA5tkasFbaAoWImL0SsADAKaQo7XjbSoOImM0SsADAKaQotbPFCRExmyVgAYBTELAQMRckYAGAU0hRahsoToiI2SwBCwAcIhCwRtvihIiYzRKwAMAl2hQt79DGFidExGx2ewIWADjFmPo92oxeYQsUImL22np0QyevqgEAuEHr0Sv+brUFChExCy1q+HK7Oz9p55U0AAA3aFXU8KBatBARs8MKr5wBADjEqFXtWxU2fLlD0QqDiJhtth65sotXzQAA3KJV4YoBWuFCRHRZW7uKvTIGAOAmrYpWVFsNImJWWLhiJfdeAYD7jFrVfruihkXbFzUYRESX3a6wYeV2/HIQALKKUctHbTfq/S+3L7SFDBHRMbeTy4LMXAFAVlK0vIP9f4gVErTsv/L/FhERM+fWWlSx3chl3NAOADmA/L/EUe/nYfZ71sjXLrtlyG1L/aTWD5ilMmMFAAAuMnjw4PZDhw41ftJrOgAAAEBqkIA1bNgw4ye9pgMAAACkhlGjRrUfMWKE8ZNe0wEAAABSgwSskSNHGj/pNR0AAAAgNUjAKiwsNH7SazoAAABAapCAVVRUZPzkmDFj9vCaDwAAAJB8JGCNHj3a+Elps9d8AAAAgOQzZsyY9rfffrvxk9Jmr/kAAAAAyUfCxh133GH8JAELAAAAUoqEDauEDj9JwAIAAIDUIWFj7Nixxk8SsAAAACCl2LDRYdy4ccZPErAAAAAgpUyYMCFv/Pjxxk8SsAAAACClSMCyGj85ceLELl7zAQAAAJKPDRz5d911l/GTts15XvMBAAAAks/EiRP7FBcXG5+Z7zUfAAAAIPlMmjSpz9133238pLTZaz4AAABA8rGBY3BJSYnxkwQsAAAASCk2cIyZPHmy8ZmjvOYDAAAAJJ977rlnzJQpU4yflDZ7zQcAAABIPvfee++DVuMzi73mAwAAACSfqVOnzpo2bZrxk9Jmr/kAAAAAyee+++6bZTU+k4AFAAAAqWP69OkvW43PfNlrPgAAAEDyuf/++1dajc9c6TUfAAAAIPk88MADxo96zQcAAABILg899FD7Bx980PhRabvXDQAAAADJw4aMPKuEDT/KA58BAAAg+ZSVlQ2YMWOG8aPSdq8bAAAAAJLHww8/XGw1PpXFRgEAACD5zJw5s8JqfGqF1w0AAAAAyeORRx5ZZDU+dZHXDQAAAADJ49FHH/37rFmzjB+VtnvdAAAAAJAcysvL21uNz2WpBgAAAEgeNlz0eeyxx4yflT7wugMAAACg5fzud7+rePzxx42flT7wugMAAACg5fz+97/fZDU+d5PXHQAAAAAtwwaLLk888YTBJyRkdfG6BQAAACBxZs+ePaaiosJghZG+8LoFAAAAIHFssKh+8sknDT4pIYv1sAAAAKBlzJ07d4+nn37a4A9Kn3jdAwAAANB8nnrqqV5z5swx+IPSJ173AAAAADSfZ555ptpqsJFLve4BAAAAaB5z5szp9OyzzxqMtLKyMs/rJgAAAID4eW4rBlWf87oJAAAAID7mzp3b6fnnnzcYXekjr7sAAAAAYmMDxKJ58+YZbFLuxQIAAID4eOGFFwa8+OKLBmNrQ9Zgr9sAAAAAdF566aUDrJusBuNS+uoAr/sAAAAAGlNdXd3OhoVFf/jDHwzGr/SZ9J3XjQAAAAA/UFVVVWE1mJAVXjcCAAAAbMUGhDGvvPKKwcSVPvS6EwAAAPzOq6++Wmw1mBSnet0KAAAAfkTuG/rjH/9YYTWYVJ/jniwAAAAf8vrrr7dfsGBBtdVgSlz6yiuvdPC6GwAAAHKd1157bZQNAF/afw2mTq+PR3ndDgAAALnI66+/nmdP+Eurq6sNpk/pc+l7bxgAAAAgF7An90tqamqqrQYz6iIZC29YAAAAINuwJ/IDrAPeeOONlVaDTrlWxkbGyBsuAAAAcBV7wm5vT96D33zzzeo//elPBt3XjtVSGTMZO28YAQAAIFNUV1e3syfoPOuohQsXVth/V9p/DWa1a63P2bEcI2NrQ9ce3nADAABAKrAn3k61tbWjFi1aVGH/XWv/NZj7emP9nP1XQlcX73AAAACARJEZDHtyHfDWW2+ttBpEezxI4JJLisxuAQAANBd7Es23J9S/v/322wZRcZM9Pvp4hwsAAAA0RX19/R7vvPNOhdUgxtIGrZftv/waEQAAIBoSrurq6pZaDWIzXPvWW2/xK0QAAIBw5AS5ePHitVaD2FxtyNr0zjvvdPIOJwAAAJAlF+xJclH4SROxma6VWVDvsAIAAPA3S5Ysmfruu+8axJZqQ9Zz3mEFAADgX+SyjnaiRGyBPO8QAAD8jcw4KCdIxJa41Du8AAAA/AezV5hCmcUCAAB/smTJklnKiRGxxXIvFgAA+BZ7IlwbfmJETJJfyq9TvUMNAADAH9gTYIewEyJiUl28eHGed7gBAAD4A3sC7BN+QkRMpjZgjfEONwAAAH9QV1c3WDspIiZLG7CKvcMNAADAH8jsgnZSREyW8iMK73ADAADwB/X19fLswTzEVGlDVgfvcAMAAAAAAAAAAAAAAAAAAAAAAAAAAAAAAAAAAAAAAAAAAAAAAAAAAAAAAAAAAAAAAAAAAAAAAAAAAAAAAAAAAAAAAAAAAAAAAAAAAAAAAAAAAAAAAAAAAAAAAAAAAAAAAAAAAAAAAAAAAAAAAIBMs912/w+dEhihvUq/LwAAAABJRU5ErkJggg==;" vertex="1" parent="1">
          <mxGeometry x="3169.77" y="481" width="87.62" height="46" as="geometry" />
        </mxCell>
        <mxCell id="VYaFD3DukPecyQG8pvWK-13" value="2 Nodes&lt;br&gt;&lt;span style=&quot;font-weight: normal;&quot;&gt;agentpool&lt;br&gt;SO: Linux&lt;br&gt;&lt;font style=&quot;font-size: 7px;&quot;&gt;TamaÃ±o: Standar_DS2_v2&lt;br&gt;&lt;/font&gt;&lt;font style=&quot;font-size: 7px;&quot;&gt;Escalabilidad automÃ¡tica&lt;br&gt;&lt;/font&gt;&lt;font style=&quot;font-size: 7px;&quot;&gt;VersiÃ³n imagen: AKSUbuntu-1804gen2containerd-2022.12.15&lt;/font&gt;&lt;br&gt;&lt;/span&gt;" style="text;html=1;align=center;verticalAlign=middle;resizable=0;points=[];autosize=1;strokeColor=none;fillColor=none;fontSize=7;fontColor=#000000;fontStyle=1" vertex="1" parent="1">
          <mxGeometry x="3106" y="526" width="210" height="62" as="geometry" />
        </mxCell>
        <mxCell id="nqiihOQmA6XP31HcyOnL-1" value="&lt;b&gt;&lt;font style=&quot;font-size: 16px;&quot;&gt;Servicios Externos&lt;br&gt;&lt;/font&gt;&lt;/b&gt;" style="text;html=1;align=center;verticalAlign=middle;resizable=0;points=[];autosize=1;strokeColor=none;fillColor=none;" vertex="1" parent="1">
          <mxGeometry x="3829.45" y="243" width="162" height="31" as="geometry" />
        </mxCell>
        <mxCell id="nqiihOQmA6XP31HcyOnL-13" value="" style="shape=image;verticalLabelPosition=bottom;labelBackgroundColor=default;verticalAlign=top;aspect=fixed;imageAspect=0;image=https://www.pngkit.com/png/detail/373-3738691_react-native-svg-transformer-allows-you-import-svg.png;" vertex="1" parent="1">
          <mxGeometry x="2872.63" y="203" width="81.37" height="91" as="geometry" />
        </mxCell>
        <mxCell id="f7D5vURYmEM6B5jqXMOg-1" value="v 0.72" style="text;html=1;resizable=0;autosize=1;align=center;verticalAlign=middle;points=[];fillColor=none;strokeColor=none;rounded=0;dashed=1;" vertex="1" parent="1">
          <mxGeometry x="2888.32" y="297.36" width="51" height="26" as="geometry" />
        </mxCell>
        <mxCell id="X_8Asj4i2b9GTVywfB0Y-1" value="Resource-Group:&amp;nbsp;&lt;span style=&quot;color: rgb(50, 49, 48); font-family: az_ea_font, &amp;quot;Segoe UI&amp;quot;, az_font, system-ui, -apple-system, BlinkMacSystemFont, Roboto, Oxygen, Ubuntu, Cantarell, &amp;quot;Open Sans&amp;quot;, &amp;quot;Helvetica Neue&amp;quot;, sans-serif; text-align: start; background-color: initial;&quot;&gt;RGAKS-APP-thecure-PROD-001&lt;/span&gt;" style="text;html=1;align=center;verticalAlign=middle;resizable=0;points=[];autosize=1;fillColor=default;" vertex="1" parent="1">
          <mxGeometry x="3089.76" y="326" width="281" height="27" as="geometry" />
        </mxCell>
        <mxCell id="X_8Asj4i2b9GTVywfB0Y-2" value="" style="shape=image;verticalLabelPosition=bottom;labelBackgroundColor=default;verticalAlign=top;aspect=fixed;imageAspect=0;image=data:image/png,iVBORw0KGgoAAAANSUhEUgAAAPsAAADJCAMAAADSHrQyAAAAk1BMVEX///9ZtNk5mcas2ux6enp2dnajo6Obm5tOsNeo2Ovg8fjH5PGw3O1nutxvb29ycnL2+/3V1dWHh4epqakfkcJ/f38tlcTi4uLo6Oi/v7+SkpL39/fGxsawsLDw8PBHrtZHn8nq9frP6fSjy+GRy+SYxd5prtGKvtrJ4O2+2upap850v96v0uV8t9adyOCMv9vX6PJTyyYBAAAI/ElEQVR4nO2da3viLBCGow1abTdRo7GeetpT99Dd/f+/7o2nVyFAZoYhodfF81Et5RbuDBBrkyQGmOWq2G03TI1Nvr6/MTWVPG53xWrJ1Zom01kmhMjzHUtrv8uynH8bs7RVZHnVs2w2ZWmtnod1lh6Tz9xbe3su+1XK+feJc1ubmTj1LFs/uHet3n6RnX9BmoqhY2sv3+b9U8ryt2vfhlc9ywouJf/PKr+0v39/nSbX5O+87F9SPrtpv8yuuybylVNraqaLPJUiBg6tVaL35bhpPxBy5/IFn/YX0S+hG//2PO/X4qT9rNY7Lu03RS5qjacLYmtXoiv0dO0X9e6JnEP7ldCQU8ddEV2hp2pfH/c9vXDVfprmuoZTUVBaq4uuav9CabbQjo6j9jrRT0IRllBa0Tm0Xxp7SdZequjKW4q/zBtFZ9B+oJ+c9GpvEP2AvsY2ZhVdmfgE7dcmeJL2tYp+/Waim2sSXaHHa78yTlG09mbRK4kGj8iOAURXJv78L1b7x6GlxwjtLaJX2xjsVQ4oukKP1345s8xUqPY20dMtskcI0eUQtN8aCnIK1d4mOn7j/rtPIz/Q47Xf6Zagp2Fr1L5j0eW0qv1m0LnoCn1r2lsKhWhPdIW+T9DejGHY2y+DEV0OYW9v1V4zfbcWUYYtiy6HsMi3al+bwSvjizsRXaEvPyO7YNNeXZYaR10IrOgJj+gKPaHaG5cp8sibdoEU0VFLd3g4tb/egW9Mr+lWdDmc2otLrRtq2fGij7lFV+jZqv3lmFk74/GiT757EF2h59I+Oy/x1vVnRRaM6HIo2muWbOJ0+qIZdorobZD32bQ/DXztmDNH3870LLpCz6G9OM5r9VH80t2/6Ao9ZW+vjPDh5ooy5cUae7L5uRXR5eC13yhXtWxv9VaZDsg2WxNdDkF7Rey917LuOU718c8WRVfpkdpPpUE+CK8sbDCttS66Qo/UXgI93FWT2FH31bsQXQ5Oe5l06MDekehyUNoPmNhbrei2IKo9D3vHossBa8/C3r3ocoDaM7BPQhBdTjn/2w775+DQq8x/tMMeyFVOSvm1FfaJv3Mpcso5wHiWa90PthsPTJm/Q6o8U33/GtKVfv7zH6jTXGubl/dQJn7ZB1zmWNmT5F8Q2pdz+C0bPva2TietgYnugb1z7aGie2HvVPvyGSq6H/ZK+45ObsryD7ar7OwdVfv5O/5jxx7YK+3b3tEiRffJ3rL28IreBnub2hNE98zemvYU0d3ZG1cRLWhPE92Vfdy7/dW0T/StPUD0yau5k2T2X71e7+lL09j71B4g+uRuNBq9srN/qth7t7ejpl//w9dpHkD019FNlXs/7BV9766pB15OcQGij28O6P7Yq4nfqP2EXXuA6C/3R3Kv7BDteW/PlnOI6Dc3bbD3bp9umjrDWO0Be/TX0QXdM3ub2iNEb4kdon1V7Z3pUaK3xt5GtQd8fvpa9BbZq2rvV3uQ6Cp5S+wg7f9QJ/78Z+OtFkX0dtmB1Z5ADziMq4neNrsf7Wmit8/uQXtsRe+OHVbt4ROfLHon7JyLfEpF75adS3sn0Ttjr7Q3/tJzmvb2pZvo3bFX9J+MRybnWBf5+KV7OOx77ZvOVszau4veLTt9b88hetfsIO1r1Z5H9M7Z99pj9/aAz0VCRA+AHbvIB3weFiZ6EOwY7RlFD4Qdssh/q7SHfP4dLHoo7LBF/jNAdCR5EOwQ7RuDEj0kdoj21iBFD4sdor05usO4D8QO0l4fREUPlZ2oPUX0ANkJ2tNED5Idqz22ogfNjtKeLHqo7GDtHUQPlx2kvZPoIbM3f1zHTfSg2Ru0dxU9cHaL9u6iB89u0J5D9A/AXmlfg2cR/SOw925V6V/4yD8c+ziyR/bIHtkje2SP7JE9skf2yB7ZI3tkj+yRPbJH9sge2SN7ZI/skT2yR/bIHtkje2SP7JE9skf2yB7ZI3tkj+yR/eOwf7n9IOwj46fU6d9P++XpQ7Cb0V2+m/flFxe9P/bRveULN5y+k/n1E8/E98U+urH+OZLj91Hf33LQ+2G3fCsvC3sy4dDeC/vorumvsNy/h3zsrr0HdqvobOyV9j3Hic/OPhpB/u6Q5/vnHbVnZm8UnZW90t4Fnpe9WXRedjftOdkhonOzu2jPxw4TnZ+drj0XO1R0H+zUas/EDhbdCztRexZ2hOie2JPkDq89A3vD0h3ILj2C/vfv+6C1d2ZHin6KxHkY5Z3Ejvz/78dgtXdlx4p+jOb/v2+lh0gDj9XejR0v+jEyZr6tHnrI5Lmw3pBavkPs7V3YKaIfMpTdzh7q70cq0i2t8Ruw9nR2muhVtqmMni4ODxfKo2k+o0iP0J7MThM9SZYzRexUFMcnslRNNnwk/Q6g9kR2quiPQw3hw/G5tTrw1duS7Ui/BqY9iZ0s+i7T8K1PT2oGvnpWELUHVHsCO110USevhn15fn6oe7rSfmlr1Jhm7fHsfKIfB/ayfN1oX0DXvukkH8vOKfqR/aqOT02vyYna2/f2OHa66Ll2Pl/P+H1WBng/2mPYmUU/oCtIOxO8D+0R7MyiH9BX6ouNI++h2oPZ2UVPTwt5JcvU+E7RtddXeyA7v+gV+eJB+yMrzSLgTE9d5Gu1B7HzLd2vB7E238/ZDMz0nNpD2D2ILrLCtkd9WFu0H3BV+2Z2H6Jna/10v2S68K99E7sf0SGb05WxMFZXQxbt7ewOopuHTRhFl7MpPGtvZW9fdDmetbewdyO6HJv29YURLP9rb2Qni24pzzDRleYs2q+bf1yb++MWx8ROFT1Zu4sux6J9jr99c8xR+yeV8cBOFT1JBiZ0lOhyzNpntCtectD+6VPt0dGIKnpiOHc69BIpupypoWycjjlJ+af75OOYTK45aD5NToLocgzazxyb5cxMOzo00eVsCt1iaeHeMFsWGvKcLLocnfZhj7ub6HJq1Z5wn95flLvoDKLLWckTn36d9xD5pNWyR6dGqvaHDy2Ek6v7Cw4V3ZaL9iKkK90+szM8p+hyprNMCJFnQx9vrVMG+46JjHgDGZblqthtafs4v3lcFcUqpItQ4PkPi5ml+lAmQz8AAAAASUVORK5CYII=;" vertex="1" parent="1">
          <mxGeometry x="3073" y="332" width="21.23" height="17" as="geometry" />
        </mxCell>
        <mxCell id="X_8Asj4i2b9GTVywfB0Y-4" value="" style="sketch=0;aspect=fixed;html=1;points=[];align=center;image;fontSize=12;image=img/lib/mscae/Azure_Database_for_MySQL_servers.svg;rounded=1;shadow=1;glass=1;strokeColor=default;fillColor=default;gradientColor=#ffffff;" vertex="1" parent="1">
          <mxGeometry x="3548.5099999999998" y="405.1" width="37.5" height="49.34" as="geometry" />
        </mxCell>
        <mxCell id="X_8Asj4i2b9GTVywfB0Y-16" style="edgeStyle=orthogonalEdgeStyle;rounded=0;orthogonalLoop=1;jettySize=auto;html=1;exitX=0.5;exitY=0;exitDx=0;exitDy=0;entryX=0;entryY=0.5;entryDx=0;entryDy=0;" edge="1" parent="1" source="X_8Asj4i2b9GTVywfB0Y-11" target="z_aPiHpWdewL4F4yoZI_-63">
          <mxGeometry relative="1" as="geometry" />
        </mxCell>
        <mxCell id="X_8Asj4i2b9GTVywfB0Y-11" value="" style="shape=image;verticalLabelPosition=bottom;labelBackgroundColor=default;verticalAlign=top;aspect=fixed;imageAspect=0;image=data:image/png,iVBORw0KGgoAAAANSUhEUgAAAPsAAADJCAMAAADSHrQyAAAAwFBMVEX///9ZtNloIXpMsNdTsthLr9fm8/ny+fz2+/1outzs9vr6/f7E4vCy2uxzvt643e2d0Oeo1eldAHHS6fSHx+KRy+SAxOHe7/dht9vU6vRjE3ae0edvvd2CxOHJ5fHh8PeukbabeqZhCHR0NoTbz994PojGsszx6/JpF3b49fm1m726pMHl2+eKXJiCTZDy7POkg66WbqGPZJvQv9RvLIBcmMZpDHNfhLZhbqhiYp+JXJdgd61lQ4xLnMmEUpGYcqOg1axHAAAN5UlEQVR4nO1d2ZbiOBJNpySDMYvNYsyeTWVl7XvP9EzPTNX//9XYJJAQETLajHCfvi91TiW2dRVaYlPo7u5veETcmY7Wg166SCaTJFks0sF6FrZj382qGfGmu1hFnAnGOOMvYEyIYJklg1nLdxNrQWudLANRMA4kKDtBsDxLR23fbXWK6SLiFbTPu4Cx5WLku8WOMJpwoUT7jP+42/gVYJroEj/wZ2LVZPrxIGJGxA/0eTL1zcEMrTRg5sT39MWy65uHPtqJjchPwIKeby56aCdms5wE501inzpkXoIFTRn53dx6niOIfhNWvU5fOGcelKve5Ob1vYHqEneiz6s9wfnaN7lKtLPLQi+1NsaC5aow4xalNTfOoqD8r4t9wCa++VVgdKH5Je3CWulOO+jR1rSbZkUXVL6A5zc765PKNa5QbgsjrdpKDbuTSFR1ILvN7S7uV1DnIkhmaup5mEYVW6QY10zDBJ1cbpoXivlM511hGkjp8+XNOTimUqFztjIwx9d92dTnQei++TZYy9Z3FqSGcgonMvZMaxDVja5E6iwYWLy1I2MvbsivM6Clbm+EbCT6grgZNadLNpCLxIEWug5I0d+K5EckddF3syTFE/r1NzHnyRWeM5uJfo4RKXqxcfYBY7SohrHM5SYcjynRc//7fERwd6559gjyPPLtxh1j6py7tzhGxMTintXbFLeJ9euQR0hYOMKrYUMs8awmabQJe4F5NGnbxFSvzb8QUyuLvymPJ7tI6vsaQd7flMcGjFjU+b1Wjqe8J+U2RmJgNUq9RIcY9fV+UYYJbEn9I3CDRhqvubsV28H79X90jfZUL7ptHw3AawQPkD/0Gj0OgRa6KwlgCbvcw3IHN5xrKVkdJPjoOh9+ARQ7z6715QEkL64dpIViv6JFiRaa/Gqf3gGK3aGr4iLQqK9xxsetcDobrdfr2eYoXNj3y9q+TmAByNcy49uzwSLLAyYE20GwIFt0ix4Iwdev7D1DS73jz7dHi6jMAYXzehdBhv95ZZMCLndOv9/pLYVGnpS4dpQINoDhoLYZ4m7GtDJmrm9JIsG7US7ChOtmxl1d7Hcx7H0Xq900008JvJ5a84IUapXWCvW0b5IY5yM+BPd4ntq9rzU2Swm8slr1DOgusxv0PcMEWNsuNwN02DOLNSesypaphKfAGJSAuVJtKvTA05BHHjO+MnxPnJlnwPpxmBGD3uw1G8WsThLMUxZAG+5yRjEaaZ7QmXjp/IfiD75CI8CUNIr9SpJljtzKs3xB1O9n/SjnAh5x8xcZAeqNSUPSKupcsMJonR5PbMZl2uukH4ijpcO8ZfXPoHqj/YaFnDoXUSqZRHHYnfAdf+Yt+yEGLRe6LSHi53viLEgvGIabXsaFB+/4ASA6p5txiHyexxdFSmO5PfKY6wV3eD3ths4OK5jnTTibAxc7rRgw9Lodh/ttJqlDgNicnimNw9klRObKAVQzYGKfjnK9IrWVhgi9QAeGhtQfJXOfby45vQowPqK8ybVI6tHNH0I7ARi36iZ8Rox4vvSdqqgF0HplRwJlwPgI49sgAnJX1TXIAV9rS92jD7grhiR7xGzPmzTXS2RGih00/HfTpUEr/DOA3BW5UynATVBjz7E08V7EmLrvhGwTgLVOLSjXI5LemzbZ77CbWok7nuzXzBlxBei8UBrzU5yZ2bTtrURowj3BScA3c9ZOA9Bhp8QdT/Ymiv1uAPV5hZ1qhoZ8A/e3Ozx8VRx2eMh7SkK3BNjilGxY+IynKLI14PBVmLgoLbGB2mwJuFvxVXjRAsf+mlpXurgulwAyx7jg/V61DY+mey1DvjPrppNsGbBdMmJZiTPtTp3qjqTzhYm8KqTShw+4zsiMR2nGy1qkJ1HLXTlSIYLxwFWWBmGTHMS/koWjYWpasT66HJXhIKuqUFT0QD5Zu/gg1GzO2PdpceKlzp2nqpNWV+bZN43xsX0oi9ipT9ln1PqN+ou7OsW5Vk9FLSOdlpMf7dTwC4SGi5Z5RybcINdLV+JiYhP/kcTTTnn1ka4DszHdJMwMDOpyWrGHyjz1fmShoXlilqRzhpFhpcKCvWnqArXDIQiwe6OTnA4yJ/AxQWX2huE/ytlKkT/3xKFz28xe4yDjW4pgkcm4o2pAUDgPTNfB/VKuVnXzTE5PV+5wZ+xOySPuTryU5qO+bEGubUzB1AH5508LMdQid0Jj0iKv6zwJxXOtzzL1L+8XiHJpuUfxsoejtU47N4uENGtJDZq1IlKRL7NJ2h2FrYN+3FkvApr+S3wWc3djvVuNejAvL6JFj9X1kkwqOCajYN3GTaEUmAGiCzdlishF95jqjWIyrhyVaNTvLPfjicqL5Wd57mLydahKMIdRj6omOHNdLE/Ndcby1aLXnW06nVarE26m3d4k4pVWnhvyVArVYZdHQRlnUcjjWs9FlKwpVb09TZcVFo8j8oS6u9fb22hGODv0sfOgcZGnVatnayCtQFqQd+JGwebtQb4oo1A4yyVcci6yy2bhZiI7jOYmQEQsu3ujBc0Hd1GZUIzV+rElu5fAzRlLnFGzz8lAm5zDtAP1+So7k8acVIWS9SkRjnPxOW1INEEnBRywZ+P5WA82fT1FoENqK3ZTNaSNY0/PKz3SPr3lFJLH8py0Rrao4WwbbwG5hFJBXWRyo0G/1+Cwi9OZm1ob5CktB5uu1BO/xF3t7bgAdVeBg1GPKz/tNzNiFaxH8G8enz4UeHp88076mwlB3r5KE1rsDtyxWuvCUQ3w8cOn++FwuC1Q/PP288Oj5IdEhVt7NVvKHfsvAu62MNG7D6+G2/n9Cebb4duHN+SPCdvDerlDnuPjyMalD50ek/nya7i9J7AdfvpI/Z7Y521PGGNr9WipU2aes33uYTinmO+kP/xFzHyinLdtwRq8xx09lkTddO7IlH38fShjvmM/f8LPYDXbNvULR59eIvKUc8OJSfOhknmJ4Vf8lPNMT/y+F00Z5qLu/uzAefXtIvWC/Gf8HHIq2BmzOJ/qdFTjpd5FJP7n9jL1Ytz/jiY9HvVWyh3uytNBTQYybcl/V6JekH+NHsXhIovVDpvH58zIy0HsdrqvCgP+Gdvv8FmshJprHERYGCjtZPReWCi3T8rUizn/AJ92GCsjQkSgI7F9v+vuvmlo8osG9YI81HKQg9HYjTgmxA4nM7WrlmEFw1TDn1KNhsLbV/B5uO2a2lcEdSLWTN3eUQ62xESh/KEl9kLwH8ALkCiMlC3SEUZ1I9VF5U9NrmN99VaP+/0WvgEJy2DC03W5yP0SFbY+fHapm3imK3ZC8AvrKk0DOt+Lnj2x9LI/xUInR/zUFfv9/e/gFXDQ6y127dGEy25yo5dv8kak585ivDKudo6P2mIvBA+9GTapG1xeU1aqsXUq0nQ4y5OR2pb3fqvPfQ6NGqV8Qf1ekStJFXdc7uizaNxbTzutSsQGQ/7+Hm5zKFrmBFWlIFp0eOSM/6EgtQRc/NOA+v0Q+LDwZRIOUB3jqrzYVQ3/MOP+47whlGFtC5hSi1BRzEwNf5gM+fst2OVoLdsKClc8rW2qNhb4lxF3uNjh4yy2UDLNWna3tv/bjPs30IoLZyG0oXrFk/LF7RQMuf8J2iBTMw2h7oppKdzdLoMh95+gCej4mg30ri80Pf4Q5IbzHcrdJXeRaVqjPZlKfAH/cTPf3Y15lhv4uHu5STHyP4z29+0D+DhdUM+Auek11GuD8vuGug0I0bjZ47joW4SwOwuuK3yjMQ99di1rvW53Ftg2sDhNI1iBuBL/NSIPQhToRHulEUGYFcuk6yai2lonESdumCFhstjNoZMeRJJ42gl14Lg6UXtTlmCOcn5MhKch/mcw4aEpA51WviqcnyNuV5vvrVb7s5aH+lnuMCoH69E1pRSFTlBmTx26bWCNJm/V3bWhLXbouUC1dq96N5kVdAW//Q2+AdaX9nSZgwlea3JHMXhYnqpBxZb03NRQp8PHe90d57gC3muQR2YM9lB7urvFEKppF1QUFleXbtB0L6G8yc9xhiXMPbjyNYzWePdaifx8i9MrUWK7n4MsFnj3U2HOz++JvFpXmQc+8etybuFPIq0U3f7g6ITydfEkz6Z9pv5APIS9Fo2sInn35s+h3KAdvibT6HF2XQNrxu7w+JmW/Xz4ikgkvqMSf5pjxyA8fhtC+vPh8BM02PfA8dembe7nePfj13Y43M53KE+NfH/6IvkpUavG301NrvDxx/uvvxX4+v4HeV7iGUTUvdliVweV1+uk7Mztg8pvbM4VN1agUzt9t+oqIM/D+rhn+Opo0+egG6jJa2MqSe1rqFqjo4lKLqpsmt1+wEDkqi2fRZJ6F82sC75LzhWZivEZZrXWOfGAnbeRi+yS7EP5ZevNclC+4KChcRENKhSzrryuUcCb5Jc+wUlWZFneaEBFEjuDlajI6Gmks6bEuf+hoJ+vFt1Zp7xTOI7brc06HefV6QyNpU5cSFdWcitmdp7nZTLIxTSOxlJXLJYrB29MuB2BOlusRT1o6DKnXidYSn3ZWJPdNjPO5hiub1iOeNFUj/Sd7GStKljU2FWugEHh/SP4xRMtN46e8ZmTxty8LUecGrFnURMvrkNop5JS2BUyjxq8xgGs+xrp11z0/xIyPyJM5Edyz4gzNnF1udINobuSVsHf8+aMr/5aIn9BvE5yifjLjPjlYtZQT6wiwm7SL4hyxvcoE815NO7NGh9hVUIcrru9xaREkva6o8vX+v2NuvB/EzzCjlwAaFsAAAAASUVORK5CYII=;" vertex="1" parent="1">
          <mxGeometry x="3082" y="619" width="47.27" height="37.85" as="geometry" />
        </mxCell>
        <mxCell id="X_8Asj4i2b9GTVywfB0Y-13" value="&lt;font style=&quot;font-size: 12px;&quot;&gt;apim-prod-001&lt;/font&gt;" style="text;html=1;align=center;verticalAlign=middle;resizable=0;points=[];autosize=1;strokeColor=none;fillColor=none;" vertex="1" parent="1">
          <mxGeometry x="3062" y="656.85" width="96" height="26" as="geometry" />
        </mxCell>
        <mxCell id="X_8Asj4i2b9GTVywfB0Y-20" value="" style="endArrow=classic;html=1;rounded=0;entryX=0.01;entryY=0.99;entryDx=0;entryDy=0;entryPerimeter=0;exitX=0.56;exitY=1.082;exitDx=0;exitDy=0;exitPerimeter=0;" edge="1" parent="1" source="z_aPiHpWdewL4F4yoZI_-36" target="z_aPiHpWdewL4F4yoZI_-6">
          <mxGeometry width="50" height="50" relative="1" as="geometry">
            <mxPoint x="3103" y="594" as="sourcePoint" />
            <mxPoint x="3153" y="544" as="targetPoint" />
            <Array as="points">
              <mxPoint x="3332" y="723" />
              <mxPoint x="2885" y="723" />
            </Array>
          </mxGeometry>
        </mxCell>
        <mxCell id="SjDOBBo1-Fr499MUlcGL-1" value="" style="shape=image;verticalLabelPosition=bottom;labelBackgroundColor=default;verticalAlign=top;aspect=fixed;imageAspect=0;image=https://1000marcas.net/wp-content/uploads/2023/01/Mercado-Pago-Logo.png;" vertex="1" parent="1">
          <mxGeometry x="3803.95" y="313.5" width="213" height="119.81" as="geometry" />
        </mxCell>
      </root>
    </mxGraphModel>
  </diagram>
</mxfile>
